<?xml version="1.0" encoding="UTF-8" standalone="no"?>
<!DOCTYPE svg PUBLIC "-//W3C//DTD SVG 1.1//EN" "http://www.w3.org/Graphics/SVG/1.1/DTD/svg11.dtd">
<svg width="100%" height="100%" viewBox="0 0 1080 1080" version="1.1" xmlns="http://www.w3.org/2000/svg" xmlns:xlink="http://www.w3.org/1999/xlink" xml:space="preserve" xmlns:serif="http://www.serif.com/" style="fill-rule:evenodd;clip-rule:evenodd;stroke-linejoin:round;stroke-miterlimit:2;">
    <rect id="Plan-de-travail1" serif:id="Plan de travail1" x="0" y="0" width="1080" height="1080" style="fill:none;"/>
    <g id="Plan-de-travail11" serif:id="Plan de travail1">
        <g transform="matrix(1,0,0,1,-9.5056,12.2769)">
            <g transform="matrix(0.844832,0,0,0.844832,-33.8391,-66.2049)">
                <g transform="matrix(526.313,0,0,526.313,1187.06,515.166)">
                </g>
                <text x="183.383px" y="515.166px" style="font-family:'AmericanCaptain', 'American Captain';font-size:526.313px;">chiliz</text>
            </g>
            <g transform="matrix(1.15034,0,0,1.15034,-1.56086,-213.595)">
                <g transform="matrix(328.176,0,0,328.176,843.156,1062.63)">
                </g>
                <text x="114.934px" y="1062.63px" style="font-family:'AmericanCaptain', 'American Captain';font-size:328.176px;">t<tspan x="214.043px 357.456px " y="1062.63px 1062.63px ">al</tspan>ent</text>
            </g>
            <g transform="matrix(1,0,0,1,408.294,422.347)">
                <path d="M257.465,208.648C252.829,196.982 244.938,178.497 231.889,150.768C240.079,130.173 248.037,115.681 257.465,104.654C261.004,100.515 264.749,96.865 268.792,93.563L271.965,90.972L265.461,86.712C262.619,84.851 259.916,82.535 257.465,79.933C251.299,73.387 246.737,65.032 245.618,57.572C245.017,53.564 245.25,49.792 246.054,47.944C246.381,47.192 246.802,46.759 247.301,46.759C247.6,46.759 248.582,47.215 249.917,47.944C251.205,48.648 252.821,49.608 254.467,50.661C255.448,51.289 256.412,51.864 257.441,52.42C262.505,55.151 269.174,57.383 287.482,62.806C293.717,64.653 299.762,67.428 304.559,70.644C308.643,73.383 312.374,75.624 312.85,75.624C312.887,75.624 312.924,75.619 312.96,75.61C314.49,75.242 315.075,67.189 313.964,61.192C313.701,59.775 313.365,58.357 312.96,56.941C307.237,36.942 287.706,17.99 268.617,13.577C243.376,7.741 208.533,18.136 187.075,41.037C180.634,47.912 181.719,43.951 186.426,34.533C188.792,29.798 193.051,24.367 199.47,17.902C206.676,10.643 213.95,4.707 221.509,0C237.182,-9.76 254.085,-14.238 274.168,-14.275C301.578,-14.326 321.669,-6.365 340.842,12.145C352.608,23.505 363.945,43.251 368.204,59.804C368.872,62.399 369.918,66.448 370.528,68.801C371.413,72.216 372.947,73.999 378.121,77.629C385.794,83.011 392.358,90.002 394.458,95.026C395.288,97.014 396.787,102.329 397.787,106.837C398.787,111.346 400.955,117.782 402.604,121.14C406.849,129.782 423.051,155.024 431.587,166.291C443.228,181.658 444.262,183.808 444.311,192.742C444.347,199.242 443.861,201.355 441.346,205.632C437.85,211.58 434.71,213.915 428.696,215.041C426.317,215.487 422.955,216.897 421.224,218.175C418.803,219.963 416.406,220.507 410.823,220.533C404.133,220.564 403.362,220.824 400.917,223.863C395.793,230.234 393.473,238.399 393.446,250.148L393.422,260.926L388.411,257.327C381.58,252.42 374.369,241.623 372.766,233.903C371.73,228.911 371.817,226.027 373.228,218.576C374.877,209.869 374.861,209.255 372.923,206.622C368.146,200.134 364.515,198.64 341.911,193.858C325.339,190.352 320.169,188.257 312.96,181.634C312.58,181.285 312.194,180.924 311.801,180.549C303.847,172.962 299.489,164.655 298.659,155.498C297.694,144.853 295.725,150.452 296.434,161.824C296.906,169.386 297.731,172.612 300.902,179.29C304.206,186.246 308.426,192.083 312.96,196.056L312.96,234.814C312.96,254.297 305.315,271.453 279.109,273.495C277.387,273.629 275.584,273.698 273.698,273.698L210.276,273.698C179.697,273.698 171.014,255.577 171.014,234.814L171.014,35.486C171.014,13.968 182.34,0 208.011,0L219.612,0C212.052,4.707 204.779,10.643 197.572,17.902C191.154,24.367 186.894,29.798 184.528,34.533C179.822,43.951 181.071,47.796 186.678,42.189C209.054,19.814 243.86,9.628 268.22,14.729C287.397,18.744 306.84,38.095 312.563,58.094C314.827,64.785 313.487,75.36 312.85,74.752C312.174,74.107 308.643,72.511 304.559,69.773C299.762,66.556 293.717,63.781 287.482,61.935C269.174,56.511 262.505,54.279 257.441,51.548C257.427,51.324 248.379,46.054 247.271,46.056C245.848,46.058 245.899,46.549 245.091,47.944L231.039,47.944C227.264,47.944 226.131,49.832 226.131,53.23L226.131,220.091C226.131,224.244 226.886,225.754 231.417,225.754L252.18,225.754C256.71,225.754 257.465,224.244 257.465,220.091L257.465,208.648ZM373.365,127.654C374.756,131.003 375.14,127.007 373.877,122.318C372.395,116.814 366.856,110.246 361.978,108.208C357.16,106.195 347.864,106.254 346.159,108.309C345.08,109.609 345.732,110.892 349.631,115.141C354.779,120.752 360.634,123.927 368.009,125.106C370.688,125.535 372.926,126.6 373.365,127.654ZM431.578,194.133C435.406,196.739 439.358,197.437 439.358,195.506C439.358,194.024 427.166,186.249 426.261,187.154C425.164,188.252 427.559,191.396 431.578,194.133ZM11.325,231.417L11.325,33.221C11.325,13.213 22.273,0 43.792,0L121.937,0L131.375,50.964L71.35,50.964C67.575,50.964 66.443,52.852 66.443,56.25L66.443,218.581C66.443,221.979 67.575,223.866 71.35,223.866L96.266,223.866L96.266,115.897L149.496,115.897L149.496,273.698L53.985,273.698C22.651,273.698 11.325,261.618 11.325,231.417ZM441.525,0L542.698,0L556.289,50.964L519.67,50.964L519.67,273.698L463.798,273.698L463.798,50.964L427.179,50.964L441.525,0Z"/>
            </g>
            <g transform="matrix(0.798344,0,0,0.798344,132.097,178.884)">
                <path d="M134.428,342.364L165.473,437.91L265.936,437.91L184.66,496.961L215.704,592.506L134.428,533.456L53.152,592.506L84.197,496.961L2.921,437.91L103.383,437.91L134.428,342.364Z"/>
            </g>
        </g>
    </g>
</svg>
