<svg xmlns="http://www.w3.org/2000/svg" width="100" height="100" viewBox="0 0 100 100" fill="none"><g clip-path="url(#clip0_101_22071)"><path d="M50 100C77.6142 100 100 77.6142 100 50C100 22.3858 77.6142 0 50 0C22.3858 0 0 22.3858 0 50C0 77.6142 22.3858 100 50 100Z" fill="#005596"></path><path d="M49.9999 98.7333C76.9146 98.7333 98.7333 76.9146 98.7333 49.9999C98.7333 23.0853 76.9146 1.2666 49.9999 1.2666C23.0853 1.2666 1.2666 23.0853 1.2666 49.9999C1.2666 76.9146 23.0853 98.7333 49.9999 98.7333Z" fill="#005596"></path><path d="M50 2.53333C76.1714 2.53333 97.4667 23.8286 97.4667 50C97.4667 76.1714 76.1714 97.4667 50 97.4667C23.8286 97.4667 2.53333 76.1714 2.53333 50C2.53333 23.8286 23.8286 2.53333 50 2.53333ZM50 0C22.3857 0 0 22.3857 0 50C0 77.6143 22.3857 100 50 100C77.6143 100 100 77.6143 100 50C100 22.3857 77.6143 0 50 0Z" fill="#005596"></path><path d="M50 100C77.6142 100 100 77.6142 100 50C100 22.3858 77.6142 0 50 0C22.3858 0 0 22.3858 0 50C0 77.6142 22.3858 100 50 100Z" fill="#0C2340"></path><path d="M50 2.53333C76.1714 2.53333 97.4667 23.8286 97.4667 50C97.4667 76.1714 76.1714 97.4667 50 97.4667C23.8286 97.4667 2.53333 76.1714 2.53333 50C2.53333 23.8286 23.8286 2.53333 50 2.53333ZM50 0C22.3857 0 0 22.3857 0 50C0 77.6143 22.3857 100 50 100C77.6143 100 100 77.6143 100 50C100 22.3857 77.6143 0 50 0Z" fill="#E94F95"></path><path d="M70.4952 33.2382C68.5333 30.9668 66.2 29.0287 63.5905 27.5001C62.8524 27.8239 62.3 28.0001 61.4381 28.0001C58.981 28.0001 56.8667 26.7239 55.9238 24.6287C53.9667 24.1668 52.0095 23.9572 50 23.962C47.9905 23.9572 46.0333 24.1668 44.0762 24.6287C43.1333 26.7239 41.019 28.0001 38.5619 28.0001C37.7 28.0001 37.1524 27.8191 36.4095 27.5001C33.8 29.0239 31.4619 30.9668 29.5 33.2382C32.019 35.0429 33.9143 37.981 33.9143 41.3001C33.9143 45.9001 30.7238 46.881 30.7238 53.4334C30.7238 57.7572 32.6667 61.1239 35.5 64.3953C37.5524 66.762 49.9952 77.8382 49.9952 77.8382C49.9952 77.8382 62.4333 66.762 64.4857 64.3953C67.3238 61.1239 69.2667 57.7572 69.2667 53.4334C69.2667 46.881 66.0762 45.9001 66.0762 41.3001C66.0762 37.981 67.9714 35.0382 70.4905 33.2382" fill="#E94F95"></path><path d="M35.1715 39.9811C35.1715 37.5144 34.2381 35.0859 32.5905 33.0954C34.3905 30.5287 35.6 29.7192 36.5096 28.9097C34.6 30.0859 32.8667 31.4859 31.3286 33.0954C33.5858 35.124 34.9667 37.8478 35.1477 40.6668C35.1619 40.4478 35.1715 40.2192 35.1715 39.9811ZM63.4905 62.2478C61.9429 64.0335 53.881 71.3192 49.9715 74.8144C46.2 71.443 38.0048 64.0382 36.4524 62.2478C33.5 58.843 32.1477 55.9573 32 52.7144C31.9905 52.9478 31.9858 53.1859 31.9858 53.4335C31.9858 56.924 33.3239 59.9525 36.4524 63.5668C38.0048 65.3573 46.2 72.7621 49.9715 76.1335C53.8858 72.6382 61.9477 65.3525 63.4905 63.5668C66.6239 59.9525 67.9619 56.924 67.9619 53.4335C67.9619 53.1859 67.9572 52.943 67.9477 52.7144C67.8 55.9573 66.4429 58.843 63.4953 62.2478M63.4381 28.9097C64.3477 29.7144 65.5572 30.524 67.3572 33.0954C65.7096 35.0906 64.7715 37.5144 64.7715 39.9811C64.7715 40.2192 64.781 40.4478 64.7953 40.6668C64.9762 37.8478 66.3572 35.124 68.6143 33.0954C67.081 31.4906 65.3429 30.0859 63.4334 28.9097M39.6381 46.1049H35.1477V51.5763H36.3191V49.562H39.6381C40.2524 49.562 40.7524 49.062 40.7524 48.4525V47.2049C40.7524 46.5954 40.2524 46.1001 39.6381 46.1001M39.2762 48.5763H36.3239V47.0716H39.2762C39.4381 47.0716 39.5762 47.2049 39.5762 47.3668V48.2811C39.5762 48.443 39.4429 48.5763 39.281 48.5763M42.6619 50.3001H45.9429L46.6334 51.5716H47.9429L44.8762 46.1001H43.7286L40.6619 51.5716H41.9715L42.6619 50.3001ZM44.3048 47.262L45.4286 49.3382H43.1858L44.3096 47.262H44.3048ZM64.8048 47.2049C64.8048 46.5954 64.3048 46.1001 63.6905 46.1001H60.4048C59.7905 46.1001 59.2905 46.5954 59.2905 47.2049V48.1859C59.2905 48.7954 59.7858 49.2954 60.4 49.2954H63.7715V50.5478H60.4V49.9382L59.2905 50.4668C59.2905 51.0763 59.7905 51.5716 60.4048 51.5716H63.7477C64.3619 51.5716 64.8619 51.0763 64.8619 50.4668V49.3478C64.8619 48.7382 64.3619 48.243 63.7477 48.243H60.3715V47.1001H63.7524V47.6049L64.8048 47.2049ZM56.381 51.5716H57.5524V46.1001H56.381V51.5716ZM54.4429 48.4478V47.2001C54.4429 46.5906 53.9429 46.0954 53.3286 46.0954H48.8429V51.5668H50.0143V49.5525H51.4191L53.581 51.5668H55.0953L52.9239 49.5525H53.3381C53.9524 49.5525 54.4524 49.0525 54.4524 48.443M52.9762 48.5668H50.0239V47.062H52.9762C53.1429 47.062 53.2762 47.1954 53.2762 47.3573C53.2762 47.3573 53.2762 48.2668 53.2762 48.2716C53.2762 48.4335 53.1429 48.5668 52.981 48.5668M41.2667 39.4811H48.0572V42.1859H41.2667V40.5001L39.2953 42.0382C39.2953 43.124 40.181 44.0049 41.2762 44.0049H48.0191C49.1143 44.0049 50 43.124 50 42.0382V39.5763C50 38.4906 49.1143 37.6144 48.0191 37.6144H41.2191V34.8668H48.0238V36.5097L49.8905 35.0525C49.8905 33.9668 49.0048 33.0859 47.9096 33.0859H41.2762C40.181 33.0859 39.2953 33.9668 39.2953 35.0525V37.5144C39.2953 38.6001 40.1762 39.4859 41.2667 39.4906M53.7477 39.4906H58.4858L60.2524 37.6192H53.7524V34.8144H60.9096L62.5381 33.0859H51.6715V44.0097H53.7524V39.4859L53.7477 39.4906ZM51.2048 60.9525L49.2858 61.6811L53.7477 57.5335L51.5096 58.3859L56.1191 52.7097L48.8905 59.4192L50.8096 58.6906L46.3477 62.8382L48.5858 61.9859L43.9762 67.662L51.2096 60.9525H51.2048ZM52.4715 60.5668L54.7191 59.7144L49.4905 64.5763L52.1143 63.5811L46.7096 70.2335L55.181 62.3763L52.9286 63.2287L58.1524 58.3716L55.5334 59.3668L60.9334 52.7144L52.4619 60.5716L52.4715 60.5668ZM45.8191 60.2382L49.5619 56.7573L47.6858 57.4716L51.5524 52.7097L45.4858 58.3335L47.1 57.724L43.3572 61.2049L45.2334 60.4906L41.3667 65.2525L47.4334 59.624L45.8191 60.2382Z" fill="white"></path><path d="M30.7095 11.3384L31.1143 12.0717L28.9 13.2955L29.2476 13.9289L31.2143 12.8431L31.6143 13.5717L29.6476 14.6574L30.1333 15.5336L29.2714 16.0098L27.6333 13.0431L30.7095 11.3431V11.3384Z" fill="white"></path><path d="M36.3001 12.6237L35.762 12.1523L33.8286 12.938L33.7715 13.6523L32.7905 14.0523L33.1334 10.2571L34.3905 9.74756L37.281 12.2285L36.3048 12.6237H36.3001ZM33.8953 12.1142L35.1334 11.6095L34.0143 10.6333L33.8953 12.1142Z" fill="white"></path><path d="M41.3476 10.1764L40.7619 7.81927L41.7095 7.58594L42.5238 10.8764L41.1286 11.224L38.6048 9.34784L39.1905 11.705L38.2381 11.9431L37.4238 8.6526L38.8238 8.30499L41.3476 10.1812V10.1764Z" fill="white"></path><path d="M46.1189 6.96208L50.1998 6.79541L50.2332 7.62874L48.6856 7.69065L48.7903 10.243L47.8094 10.2811L47.7046 7.72874L46.1522 7.79065L46.1189 6.95731V6.96208Z" fill="white"></path><path d="M51.3905 8.49526C51.4857 7.37622 52.3143 6.78098 53.7381 6.90479C55.1572 7.0286 55.8762 7.75717 55.781 8.87145C55.6857 9.9905 54.8524 10.5953 53.4334 10.4715C52.0096 10.3476 51.2953 9.61907 51.3905 8.49526ZM54.7572 8.78574C54.8096 8.20003 54.5048 7.80955 53.6667 7.73812C52.8334 7.66669 52.4667 7.9905 52.4191 8.58574C52.3667 9.18098 52.6762 9.57145 53.5048 9.64288C54.3381 9.71431 54.7096 9.38098 54.7619 8.7905L54.7572 8.78574Z" fill="white"></path><path d="M61.6239 8.36681L59.6334 9.38109L60.881 11.6763L59.6763 11.4049L58.8096 9.8049L57.862 10.2859L57.7096 10.9573L56.7524 10.7382L57.5001 7.42871L58.462 7.643L58.1286 9.12871L60.1953 8.03823L61.6334 8.36204L61.6239 8.36681Z" fill="white"></path><path d="M66.3286 9.99553L66.0667 10.7193L63.6858 9.85744L63.5 10.367L65.7905 11.1955L65.5286 11.9193L63.2381 11.0908L63.0524 11.6003L65.4334 12.4622L65.1715 13.186L61.8667 11.9908L63.0191 8.80029L66.3238 9.99553H66.3286Z" fill="white"></path><path d="M69.7618 14.3526L70.8761 12.1907L71.7476 12.6383L70.1904 15.6526L68.9095 14.9907L68.2476 11.9097L67.1333 14.0716L66.2571 13.6193L67.8142 10.605L69.0999 11.2669L69.7618 14.3478V14.3526Z" fill="white"></path><path d="M27.3953 85.4763C27.2476 85.7192 27.3953 86.0239 28.1572 86.4858C28.8572 86.9049 29.0953 86.9001 29.2048 86.7192C29.3334 86.5097 29.2238 86.3906 28.3953 85.8144C27.2667 85.024 26.8905 84.4763 27.2762 83.8335C27.6429 83.2287 28.4619 83.3478 29.4667 83.9525C30.5857 84.6239 31.0238 85.3525 30.6619 86.0144L29.781 85.4859C29.9334 85.2287 29.7143 84.962 29.0619 84.5716C28.4429 84.2001 28.2429 84.2192 28.1476 84.3763C28.0381 84.5573 28.1476 84.6954 28.8953 85.2335C29.9143 85.9573 30.5619 86.4478 30.1048 87.2097C29.6572 87.9525 28.8381 87.7573 27.8048 87.1335C26.6286 86.4239 26.0905 85.7382 26.5096 84.9478L27.3905 85.4811L27.3953 85.4763Z" fill="white"></path><path d="M31.5238 87.1909C31.9714 86.1576 32.9428 85.8623 34.2571 86.429C35.5667 86.9957 36.0143 87.9147 35.5714 88.9433C35.1238 89.9766 34.1428 90.2814 32.8333 89.7147C31.519 89.148 31.0762 88.229 31.5238 87.1909ZM34.6286 88.5385C34.8619 87.9957 34.6952 87.5338 33.9238 87.1957C33.1571 86.8623 32.7047 87.0576 32.4714 87.6004C32.2333 88.1481 32.4047 88.6147 33.1667 88.948C33.9333 89.2814 34.3952 89.0814 34.6286 88.5338V88.5385Z" fill="white"></path><path d="M39.3047 88.2194C40.5047 88.5575 41.0428 89.2623 40.9047 90.129L39.9 89.848C39.919 89.529 39.6857 89.1909 39.0809 89.0242C38.3809 88.829 37.9476 89.0766 37.7857 89.648C37.6238 90.2242 37.8714 90.6671 38.5666 90.8623C39.1714 91.029 39.5476 90.8623 39.6952 90.5718L40.7 90.8528C40.3666 91.6718 39.5428 92.0004 38.3381 91.6671C37.0285 91.3004 36.4809 90.4909 36.7905 89.3718C37.1047 88.2575 37.9905 87.8528 39.3 88.2194H39.3047Z" fill="white"></path><path d="M43.3953 89.2289L42.7953 92.5623L41.8286 92.3861L42.4286 89.0527L43.3953 89.2289Z" fill="white"></path><path d="M44.4191 91.1481C44.5096 90.029 45.3334 89.4338 46.7572 89.5481C48.1763 89.6624 48.9001 90.3909 48.8049 91.5052C48.7144 92.6243 47.8858 93.229 46.462 93.1147C45.0382 93.0005 44.3191 92.2719 44.4144 91.1481H44.4191ZM47.7858 91.4243C47.8334 90.8386 47.5287 90.4528 46.6906 90.3814C45.8572 90.3148 45.4953 90.6433 45.443 91.2338C45.3953 91.829 45.7049 92.2148 46.5334 92.2862C47.3668 92.3528 47.7382 92.0195 47.7858 91.4243Z" fill="white"></path><path d="M51.119 92.048C51.1333 92.3337 51.4238 92.5051 52.3143 92.4575C53.1286 92.4146 53.3238 92.2766 53.3095 92.0623C53.2952 91.8146 53.1428 91.7813 52.1333 91.767C50.7571 91.7432 50.1333 91.5004 50.0952 90.748C50.0571 90.0432 50.8047 89.6813 51.9762 89.6242C53.2809 89.5575 54.0524 89.9099 54.119 90.6623L53.0952 90.7146C53.0809 90.4146 52.7476 90.3194 51.9857 90.3575C51.2666 90.3956 51.1095 90.5242 51.119 90.7051C51.1285 90.9146 51.2952 90.9718 52.219 91.0004C53.4666 91.0289 54.2809 91.0718 54.3285 91.9623C54.3714 92.8289 53.5857 93.1242 52.3809 93.1861C51.0095 93.2575 50.1762 92.9861 50.0857 92.0956L51.1143 92.0432L51.119 92.048Z" fill="white"></path><path d="M55.7428 92.0429L56.6809 91.9048L56.7857 92.6334L55.8476 92.7715L55.738 92.0429H55.7428Z" fill="white"></path><path d="M59.4811 88.5382C60.6953 88.243 61.5096 88.5953 61.8144 89.4191L60.8001 89.6668C60.662 89.3763 60.2906 89.2001 59.6811 89.3477C58.9763 89.5192 58.7192 89.9477 58.8572 90.5287C59.0001 91.1096 59.4334 91.3763 60.1334 91.2049C60.743 91.0572 60.9906 90.7239 60.9763 90.3953L61.9906 90.1477C62.1001 91.0239 61.543 91.7191 60.3287 92.0144C59.0049 92.3382 58.1287 91.9001 57.8525 90.7715C57.5763 89.6477 58.1525 88.862 59.4763 88.5382H59.4811Z" fill="white"></path><path d="M63.1524 89.3956C62.7382 88.348 63.2191 87.448 64.5477 86.9242C65.8715 86.4003 66.8429 86.7337 67.2524 87.7765C67.6667 88.8242 67.1858 89.7337 65.862 90.2575C64.5334 90.7813 63.5667 90.448 63.1524 89.3956ZM66.3001 88.1527C66.0858 87.6051 65.6382 87.3908 64.8572 87.7003C64.081 88.0051 63.8953 88.4622 64.1143 89.0146C64.3334 89.5718 64.7858 89.7813 65.5572 89.4765C66.3334 89.1718 66.5191 88.7051 66.3001 88.1527Z" fill="white"></path><path d="M69.3381 88.6907L67.6333 85.7574L68.9571 84.986L71.1095 86.3383L70.9952 83.8002L72.319 83.0288L74.0238 85.9621L73.1762 86.4526L71.9428 84.3288L72.0762 87.0955L71.2904 87.5526L68.9524 86.0717L70.1904 88.1955L69.3381 88.6907Z" fill="white"></path><path d="M23.019 81.8382C13.9952 74.1811 8.2666 62.7573 8.2666 50.0001C8.2666 37.243 14.2999 25.2144 23.738 17.562" stroke="#E94F95" stroke-miterlimit="10"></path><path d="M76.2666 17.5669C85.7047 25.2193 91.7333 36.905 91.7333 50.0002C91.7333 63.0955 86.0047 74.1859 76.9809 81.8431" stroke="#E94F95" stroke-miterlimit="10"></path></g><defs><clipPath id="clip0_101_22071"><rect width="100" height="100" fill="white"></rect></clipPath></defs></svg>