<svg xmlns="http://www.w3.org/2000/svg" width="100" height="100" viewBox="0 0 100 100" fill="none"><g clip-path="url(#clip0_101_22096)"><path d="M50 100C77.6142 100 100 77.6142 100 50C100 22.3858 77.6142 0 50 0C22.3858 0 0 22.3858 0 50C0 77.6142 22.3858 100 50 100Z" fill="#005596"></path><path d="M50 98.7333C76.9147 98.7333 98.7333 76.9146 98.7333 49.9999C98.7333 23.0853 76.9147 1.2666 50 1.2666C23.0853 1.2666 1.26666 23.0853 1.26666 49.9999C1.26666 76.9146 23.0853 98.7333 50 98.7333Z" fill="#005596"></path><path d="M50 2.53333C76.1714 2.53333 97.4667 23.8286 97.4667 50C97.4667 76.1714 76.1714 97.4667 50 97.4667C23.8286 97.4667 2.53333 76.1714 2.53333 50C2.53333 23.8286 23.8286 2.53333 50 2.53333ZM50 0C22.3857 0 0 22.3857 0 50C0 77.6143 22.3857 100 50 100C77.6143 100 100 77.6143 100 50C100 22.3857 77.6143 0 50 0Z" fill="#005596"></path><path d="M50 100C77.6142 100 100 77.6142 100 50C100 22.3858 77.6142 0 50 0C22.3858 0 0 22.3858 0 50C0 77.6142 22.3858 100 50 100Z" fill="#002554"></path><path d="M50 2.53333C76.1714 2.53333 97.4667 23.8286 97.4667 50C97.4667 76.1714 76.1714 97.4667 50 97.4667C23.8286 97.4667 2.53333 76.1714 2.53333 50C2.53333 23.8286 23.8286 2.53333 50 2.53333ZM50 0C22.3857 0 0 22.3857 0 50C0 77.6143 22.3857 100 50 100C77.6143 100 100 77.6143 100 50C100 22.3857 77.6143 0 50 0Z" fill="white"></path><path d="M50.0429 20.9712L30.3 32.8855V37.2712V37.2807V49.4331V50.5093V62.6617V62.6712V67.1331L50.0429 79.0283L69.7048 67.1331V62.6712V62.6617V50.5093V49.4331V37.2807V37.2712V32.8855L50.0429 20.9712Z" fill="white"></path><path d="M50.0381 21.6523L30.8857 33.2142V37.6476V37.6571V49.4523V50.4904V62.2857V62.3V66.8047L50.0381 78.3476L69.119 66.8047V62.3V62.2857V50.4904V49.4523V37.6571V37.6476V33.2142L69.0476 33.1762L50.0381 21.6523Z" fill="#002554"></path><path d="M50.0381 21.6523L30.8857 33.2142V37.6476V37.6571V49.4523V50.4904V62.2857V62.3V66.8047L50.0381 78.3476L69.119 66.8047V62.3V62.2857V50.4904V49.4523V37.6571V37.6476V33.2142L69.0476 33.1762L50.0381 21.6523Z" stroke="#002554" stroke-width="0.21" stroke-miterlimit="10"></path><path d="M47.7238 37.057C47.9952 37.0665 48.9524 37.2427 49 37.8093C49.0476 38.3712 48.7571 38.9617 48.3619 38.9998C47.9667 39.0379 47.4905 39.0284 47.2095 38.8855C46.9286 38.7427 46.7857 38.7903 46.6762 38.4046C46.5619 38.0189 46.3905 38.2093 46.5857 37.6236C46.781 37.0427 46.5429 36.7903 47.0429 36.7808" fill="white"></path><path d="M41.619 35.395C41.5429 35.3522 40.3905 35.395 40.3905 35.395L39.7143 36.3331L40.6619 39.7712H44.8571L46.0381 38.8855L46.1714 38.8188L46.2571 38.8045L46.1667 38.2474C46.1667 38.2474 46.1667 37.5712 45.8381 37.1569C45.5048 36.7379 44.8286 36.3045 44.3143 36.395C43.7952 36.4855 43.2048 36.6284 43.0048 36.895C42.8048 37.1617 42.7952 37.1093 42.7476 37.0855C42.7 37.0617 42.7095 36.9712 42.7476 36.876C42.781 36.7807 42.1 35.6855 41.619 35.3998" fill="white"></path><path d="M59.5952 36.4235H53.4L51.7 34.9663L51.9619 39.7711L54.4857 38.4806L55.4905 39.7711H59.5952V36.4235Z" fill="white"></path><path fill-rule="evenodd" clip-rule="evenodd" d="M56.0714 39.8095C55.519 39.8095 55.0952 39.6667 54.8143 39.3857C54.4333 39.0048 54.4381 38.4952 54.4381 38.3286V36.5333H55.6V38.3048C55.6 38.3429 55.6429 38.7476 56.0429 38.7476C56.1619 38.7476 56.2524 38.7143 56.319 38.6476C56.4476 38.5191 56.4476 38.3048 56.4476 38.3048V36.5429H57.619V38.3571C57.6238 38.4238 57.6524 38.9571 57.281 39.3619C57.0095 39.6571 56.6048 39.8095 56.0667 39.8095M44.5 39.7524C42.7714 39.7524 42.7238 38.281 42.7238 38.1143C42.7238 37.3143 43.1714 36.3857 44.4286 36.3857C44.9286 36.3857 45.3286 36.5333 45.6095 36.8286C46.0714 37.3095 46.0476 38 46.0476 38.0333V38.3857H43.9333C43.9857 38.6286 44.2143 38.8095 44.4952 38.8095C44.819 38.8095 44.9905 38.4905 44.9952 38.4905L45.0476 38.3952L45.1429 38.4429L46.0095 38.8714L45.9381 38.9762C45.5905 39.5 45.1095 39.7619 44.5 39.7619M44.8476 37.6048C44.8048 37.4714 44.6952 37.281 44.4143 37.281C44.1333 37.281 44.0143 37.4714 43.9667 37.6048H44.8476ZM47.6524 39.7143C46.9095 39.7143 46.1571 39.1905 46.1571 38.019C46.1571 36.8476 47.0571 36.3952 47.6619 36.3952C48.0143 36.3952 48.3286 36.5381 48.519 36.6476V34.5H49.681V39.6667H48.5333V39.4286C48.3524 39.5571 48.0571 39.7143 47.6524 39.7143ZM47.9286 37.4C47.8571 37.4 47.3762 37.4571 47.3762 38.0571C47.3762 38.619 47.7524 38.681 47.9143 38.681C47.9429 38.681 48.5571 38.6714 48.5571 38.0429C48.5571 37.4524 47.9857 37.4048 47.9286 37.4048M59.5095 34.5H60.6476V39.6667H59.5095V34.5ZM57.9381 34.5H59.0905V39.6667H57.9381V34.5ZM50.7 39.6667V34.6952H52.4476C53.519 34.6952 53.9952 35.3571 53.9952 36.0095C53.9952 36.4667 53.7905 36.7762 53.6524 36.9381C54.0952 37.1524 54.3857 37.481 54.3857 38.2333C54.3857 39.6333 52.8476 39.6667 52.8286 39.6667H50.7ZM52.6619 38.6143C52.7238 38.6048 53.181 38.5191 53.181 38.1C53.181 37.6191 52.7524 37.5905 52.6667 37.5905H51.9857V36.5333H52.4C52.4 36.5333 52.4095 36.5333 52.419 36.5333C52.5571 36.5333 52.7809 36.481 52.7809 36.1381C52.7809 35.7952 52.4762 35.7429 52.2952 35.7429C52.2762 35.7429 52.2667 35.7429 52.2667 35.7429H52.2571H51.9V38.6095H52.6571L52.6619 38.6143ZM41.6619 39.6667L40.6333 38.0429V36.781H40.9809C41.0714 36.781 41.5048 36.7571 41.5048 36.2524C41.5048 35.781 41.0524 35.7429 40.9143 35.7429H40.5476V39.6667H39.3429V34.5952H40.6429C42.0524 34.5952 42.7381 35.1381 42.7381 36.2571C42.7381 37.2571 42.0333 37.5619 41.6905 37.6524L43.081 39.6714H41.6571L41.6619 39.6667Z" fill="#D20F3E"></path><path d="M60.5429 39.5472H59.6286V34.6043H60.5429V39.5472ZM58.981 39.5472H58.0571V34.6043H58.981V39.5472ZM49.5714 34.6043V39.5472H48.6476V39.1757C48.6476 39.1757 48.2905 39.5948 47.6524 39.5948C47.0143 39.5948 46.2714 39.1567 46.2714 38.0091C46.2714 36.8614 47.1429 36.4995 47.6619 36.4995C48.181 36.4995 48.6333 36.8472 48.6333 36.8472V34.6043H49.5714ZM47.9191 38.7853C47.9667 38.7853 48.6714 38.7615 48.6714 38.0329C48.6714 37.3043 47.9286 37.2805 47.9286 37.2805C47.9286 37.2805 47.2667 37.3043 47.2667 38.0472C47.2667 38.79 47.8476 38.7805 47.9191 38.7805M40.6476 34.6948C41.781 34.6948 42.6286 35.0234 42.6286 36.2424C42.6286 37.4615 41.5048 37.5614 41.5048 37.5614L42.8714 39.5424H41.7238L40.7476 37.9995V36.8853H40.981C41.0333 36.8853 41.6143 36.871 41.6143 36.2472C41.6143 35.6234 41.0191 35.6234 40.9095 35.6234C40.9 35.6234 40.8952 35.6234 40.8952 35.6234H40.4333V39.5472H39.4571V34.6995H40.6476M52.4524 34.7995C53.4286 34.7995 53.8905 35.371 53.8905 35.9995C53.8905 36.6281 53.4619 36.9662 53.4619 36.9662C53.9857 37.1757 54.2762 37.4662 54.2762 38.2234C54.2762 39.5281 52.8333 39.5424 52.8333 39.5424H50.8191V34.7948H52.4571M51.8 38.7138H52.6762C52.6762 38.7138 53.3 38.6376 53.3 38.09C53.3 37.5424 52.8238 37.471 52.6762 37.471H52.1048V36.6376H52.3952C52.3952 36.6376 52.4048 36.6376 52.4238 36.6376C52.5333 36.6376 52.9 36.6043 52.9 36.1281C52.9 35.6519 52.4381 35.6186 52.3 35.6186C52.2762 35.6186 52.2619 35.6186 52.2619 35.6186H51.7952V38.7091M44.4333 36.4853C46 36.4853 45.9381 38.0138 45.9381 38.0138V38.2567H43.8095C43.8095 38.6043 44.1 38.9043 44.4952 38.9043C44.8905 38.9043 45.0952 38.5234 45.0952 38.5234L45.8476 38.8948C45.5 39.4186 45.0286 39.6281 44.5048 39.6281C42.8714 39.6281 42.8381 38.271 42.8381 38.0995C42.8381 37.9281 42.8619 36.4853 44.4286 36.4853M43.8238 37.6995H44.9905C44.9905 37.6995 44.9429 37.1519 44.4143 37.1519C43.8857 37.1519 43.8238 37.6995 43.8238 37.6995ZM55.4905 36.6424V38.2995C55.4905 38.2995 55.5238 38.8567 56.0476 38.8567C56.5714 38.8567 56.5667 38.2995 56.5667 38.2995V36.6424H57.5143V38.3567C57.5143 38.3567 57.6333 39.69 56.0762 39.69C54.5191 39.69 54.5571 38.5186 54.5571 38.3091V36.6424H55.4952M60.7714 34.371H59.4048V39.7662H60.7714V34.371ZM59.2095 34.371H57.8333V39.7662H59.2095V34.371ZM49.8 34.371H48.4095V36.4472C48.2095 36.3519 47.9476 36.2662 47.6619 36.2662C47.1 36.2662 46.3095 36.6091 46.1 37.5186C46.0429 37.2757 45.9238 36.9853 45.6905 36.7424C45.3857 36.4281 44.9619 36.2662 44.4286 36.2662C43.0857 36.2662 42.6095 37.2567 42.6095 38.1091C42.6095 38.9614 43.1048 39.8614 44.5 39.8614C45.1476 39.8614 45.6619 39.5805 46.0286 39.0234L46.1714 38.8091L45.9429 38.6948L45.5143 38.4853H46.0905C46.2714 39.3948 46.9667 39.8091 47.6524 39.8091C47.9714 39.8091 48.2286 39.7186 48.4238 39.6138V39.7614H49.7952V34.3662L49.8 34.371ZM44.1667 37.4757C44.2191 37.4186 44.3 37.3757 44.4191 37.3757C44.5381 37.3757 44.6095 37.4186 44.6619 37.4757H44.1667ZM47.9191 38.5519C47.7238 38.5519 47.4952 38.4614 47.4952 38.0424C47.4952 37.5662 47.8429 37.5091 47.9333 37.4995C48.0381 37.5043 48.4476 37.5614 48.4476 38.0234C48.4476 38.5186 48.0095 38.5472 47.9191 38.5519ZM44.1048 38.4853H44.8524C44.7905 38.5614 44.6714 38.6805 44.4952 38.6805C44.3191 38.6805 44.1857 38.6043 44.1048 38.4853ZM40.6476 34.4662H39.2333V39.7662H40.6619V38.2853L41.5333 39.6614L41.6 39.7662H43.3L43.0571 39.4138L41.8762 37.7043C42.3286 37.5424 42.8524 37.1186 42.8524 36.2424C42.8524 35.5948 42.6286 35.1186 42.1857 34.8234C41.8286 34.5853 41.3238 34.471 40.6476 34.471M40.6619 35.8472H40.9095H40.9143C41.0905 35.8472 41.3905 35.8995 41.3905 36.2424C41.3905 36.6138 41.1048 36.6567 40.981 36.6567H40.6667V35.8472H40.6619ZM52.4524 34.571H50.5905V39.7662H52.8286C52.8286 39.7662 53.2429 39.7614 53.6476 39.5757C53.9191 39.4519 54.2238 39.2281 54.3857 38.8376C54.4524 39.0853 54.5667 39.2948 54.7333 39.4615C55.0333 39.7662 55.4857 39.9186 56.0667 39.9186C56.6476 39.9186 57.0714 39.7567 57.3619 39.4376C57.7571 39.0091 57.7381 38.4472 57.7286 38.3519V36.4186H56.3333V38.2995C56.3333 38.3995 56.3048 38.6329 56.0429 38.6329C55.7667 38.6329 55.7191 38.3805 55.7095 38.29V36.4138H54.3191V37.3757C54.1952 37.1424 54.0191 36.99 53.8238 36.8805C53.9619 36.69 54.1095 36.39 54.1095 35.99C54.1095 35.2805 53.5952 34.5615 52.4476 34.5615M52.0143 35.8376H52.2762C52.2762 35.8376 52.2857 35.8376 52.2952 35.8376C52.5429 35.8376 52.6714 35.9329 52.6714 36.1234C52.6714 36.2091 52.6714 36.4043 52.4191 36.4043C52.4143 36.4043 52.4095 36.4043 52.4095 36.4043H52.4H52.3905H52.0191V35.8424L52.0143 35.8376ZM52.0143 37.6853H52.6667C52.7619 37.6853 53.0667 37.7138 53.0667 38.0805C53.0667 38.3948 52.7191 38.471 52.6524 38.4805H52.0191V37.6853H52.0143Z" fill="white"></path><path d="M59.5238 34.3809H59.0476V36.8428H59.5238V34.3809Z" fill="white"></path><path d="M41.1381 42.5381H33.7238V52.0857V65.1619L48.1238 73.8714V52.0857V42.5381H41.1381ZM44.3095 52.0857V67.0809L37.5333 62.9809V52.0857V46.3524H44.3095V52.0857Z" fill="white"></path><path d="M58.8667 42.5381H55.6952H51.881V46.3524V52.0809V52.0857V73.8667L66.281 65.1571V54.6619H62.4762H62.4667H59.081V58.4762H62.4667V62.9762L55.6952 67.0762V52.0857V52.0809V46.3524H62.4667V50.8524H66.281V46.3524V42.5381H58.8667Z" fill="white"></path><path fill-rule="evenodd" clip-rule="evenodd" d="M53.4238 30.1714C53.4238 32.0618 51.8905 33.5952 50 33.5952C48.1095 33.5952 46.5762 32.0618 46.5762 30.1714C46.5762 28.2809 48.1095 26.7476 50 26.7476C51.8905 26.7476 53.4238 28.2809 53.4238 30.1714Z" fill="#FFCC07"></path><path d="M49.881 31.8044C49.8286 31.7853 49.681 31.7092 49.6095 31.6092C49.5857 31.5425 49.5 31.352 49.3143 31.1949C49.3048 31.0996 49.2762 30.9282 49.1905 30.7996C49.1762 30.733 49.1381 30.5663 49.1238 30.5187C49.1 30.433 49.0714 30.3139 49.0714 30.2853C49.0714 30.233 49.0714 29.9377 48.8857 29.6949C48.8524 29.6377 48.7333 29.433 48.5571 29.2711C48.5238 29.233 48.4048 29.0853 48.3048 28.9853C48.2762 28.9568 48.1286 28.7901 47.8333 28.5806C47.8333 28.5806 47.7048 28.4853 47.6143 28.3901C47.6095 28.3853 47.6 28.3758 47.5905 28.3711C47.5762 28.3615 47.2714 28.1425 46.9238 28.1425C46.7524 28.1425 46.6048 28.1949 46.4762 28.2949C46.4048 28.3425 46.2 28.4663 46.0381 28.5092C45.9571 28.5187 45.5 28.5996 45.281 28.9472C45.2667 28.952 45.2429 28.9615 45.1952 28.9711C45.0952 28.9663 44.6857 28.9711 44.3714 29.3758C44.3429 29.3996 44.2381 29.4758 44.0571 29.4996C43.9619 29.4949 43.5143 29.4853 43.2 29.8472C43.0857 29.9472 42.7524 30.1758 42.4762 30.1758C42.3714 30.1758 42.2857 30.1425 42.2143 30.0758C42.2 30.0615 42.0857 29.9282 42.2619 29.6568C42.2905 29.6234 42.4429 29.452 42.681 29.2758C42.7952 29.1949 42.9762 28.9711 42.8619 28.6853C42.8381 28.6139 42.7286 28.3472 42.3333 28.333C42.219 28.3092 41.9333 28.2234 41.819 28.0853C41.7857 28.0425 41.7286 28.0187 41.6714 28.033C41.6143 28.0425 41.5714 28.0853 41.5571 28.1377C41.5571 28.152 41.4571 28.5044 41.6524 28.7663C41.7762 28.9282 41.9762 29.0139 42.2476 29.0139C42.2143 29.0472 42.1714 29.0853 42.1286 29.0996C42.1286 29.0996 42.1238 29.0996 42.119 29.0996C42.1048 29.1044 41.8238 29.233 41.7 29.6282C41.6 29.8853 41.5619 30.4187 42.1333 30.6472C42.3048 30.7044 42.4952 30.7187 42.7381 30.6949C42.7476 30.833 42.7762 31.0282 42.8714 31.2139C42.8714 31.2187 42.8762 31.2282 42.881 31.233C42.8905 31.252 42.9 31.2758 42.9 31.2901L42.7048 31.4044C42.7048 31.4044 42.681 31.4044 42.6619 31.4044C42.6429 31.4044 42.6 31.3949 42.5571 31.3949C42.4333 31.3949 42.3667 31.4472 42.3333 31.4901C42.3238 31.5044 42.3143 31.5187 42.3095 31.533C42.3095 31.533 42.2714 31.6425 42.2238 31.733C42.2238 31.733 42.2238 31.7377 42.2238 31.7425C42.2048 31.7853 42.1619 31.8615 42.1048 31.9234C42.1048 31.9092 42.1 31.8949 42.0952 31.8758C42.081 31.8377 42.0429 31.7711 41.9381 31.752C41.8524 31.733 41.7571 31.752 41.6905 31.8139C41.6429 31.8568 41.581 31.8996 41.5619 31.9092C41.5 31.933 41.4333 31.9853 41.4143 32.0711C41.4143 32.0711 41.4143 32.0758 41.4143 32.0806C41.3619 32.0853 41.3191 32.1092 41.281 32.1472C41.2048 32.2282 41.1952 32.3472 41.1905 32.3996C41.1905 32.4425 41.1762 32.4615 41.1762 32.4615C41.1762 32.4615 41.1762 32.4615 41.1762 32.4663C41.1238 32.5568 41.1286 32.633 41.1333 32.652C41.1333 32.6568 41.1333 32.6663 41.1333 32.6711C41.1476 32.7234 41.2048 32.8472 41.4191 32.8472C41.4714 32.8472 41.5143 32.8377 41.5191 32.8377C41.5333 32.8377 41.5476 32.8282 41.5619 32.8234C41.5905 32.8425 41.6286 32.852 41.6619 32.8472C41.6619 32.8472 41.6857 32.8472 41.7143 32.8472C41.7476 32.8472 41.7667 32.8472 41.781 32.8568C41.7905 32.8568 41.8429 32.8758 41.9143 32.8758C42.0476 32.8758 42.1619 32.8092 42.2238 32.6996C42.2619 32.6377 42.3143 32.5711 42.3476 32.5472C42.3762 32.5568 42.4286 32.5663 42.4952 32.5663C42.6429 32.5663 42.7762 32.5139 42.8762 32.4092C42.8762 32.4092 43.0238 32.2568 43.2238 32.2568C43.2429 32.2568 43.2667 32.2568 43.281 32.2568C43.2857 32.2568 43.4429 32.2901 43.5905 32.2901C43.7095 32.2901 43.7952 32.2711 43.8571 32.2282C43.9429 32.1853 44.0905 32.1092 44.1333 32.0949C44.2048 32.0758 44.3286 31.9996 44.3524 31.8425C44.381 31.7758 44.4143 31.7044 44.4286 31.6853C44.4619 31.6472 44.4714 31.5949 44.4619 31.552C44.5238 31.5663 44.6143 31.5758 44.7048 31.5615H44.7143C44.7143 31.5615 44.8667 31.5234 45.0286 31.5234C45.0762 31.5234 45.1191 31.5234 45.1571 31.533C45.1952 31.5425 45.419 31.5901 45.6619 31.5901C45.7286 31.5901 45.7952 31.5901 45.8524 31.5806C45.881 31.5806 45.9048 31.5663 45.9286 31.5472C46.0048 31.6377 46.1095 31.7187 46.2429 31.7663C46.2429 31.7663 46.381 31.8187 46.4143 31.9996C46.3619 32.0234 46.2714 32.0615 46.1095 32.1187C46.1095 32.1187 46.1048 32.1187 46.1 32.1187C46.0286 31.9711 45.8619 31.6758 45.6429 31.6758C45.6429 31.6758 45.6286 31.6758 45.6238 31.6758L45.3286 31.6996C45.3286 31.6996 45.3095 31.6996 45.3048 31.6996C45.2429 31.7139 45.1714 31.7615 45.1476 31.8425C45.1333 31.8806 45.1286 31.9615 45.2 32.0472C45.2238 32.0806 45.2857 32.1663 45.319 32.2234C45.3476 32.2996 45.419 32.3711 45.5381 32.3711C45.5524 32.3711 45.5667 32.3711 45.5857 32.3711C45.5857 32.3711 45.5857 32.3711 45.5905 32.3711C45.6 32.3806 45.6095 32.4044 45.6238 32.4472C45.6238 32.4568 45.6333 32.4663 45.6381 32.4758C45.6476 32.4949 45.7381 32.652 45.9048 32.7044C45.9143 32.7044 45.9667 32.7234 46.0333 32.7234C46.1 32.7234 46.1667 32.7092 46.2238 32.6806C46.3762 32.6234 46.7 32.4996 46.8095 32.433C46.8191 32.4282 46.8524 32.4139 46.8714 32.4139C46.8714 32.4139 46.881 32.4139 46.8857 32.4139C46.8952 32.4139 46.9286 32.4234 46.9714 32.4234C47.0952 32.4234 47.2 32.3663 47.2571 32.2663L47.3667 32.0949C47.381 32.1568 47.4 32.2234 47.4381 32.2663C47.4571 32.2901 47.5286 32.3711 47.6429 32.3711C47.6667 32.3711 47.6905 32.3711 47.7095 32.3615C47.7095 32.3615 47.719 32.3615 47.7238 32.3615C47.7476 32.3615 47.7952 32.3568 47.8952 32.3234C47.9238 32.3139 48.0381 32.2853 48.0857 32.2663C48.1429 32.2472 48.2476 32.2187 48.2905 32.2187C48.2952 32.2187 48.3048 32.2187 48.3143 32.2187C48.319 32.2187 48.3571 32.2187 48.4 32.2234C48.4 32.2234 48.4095 32.2234 48.4143 32.2234C48.4143 32.2234 48.4333 32.2234 48.4619 32.2234C48.5381 32.2234 48.7191 32.2092 48.8667 32.0758C48.9571 32.1711 49.1762 32.3663 49.4952 32.3663C49.5524 32.3663 49.6143 32.3615 49.6714 32.3472C49.7333 32.333 49.781 32.2806 49.7905 32.2139C49.7905 32.1806 49.7905 32.152 49.7714 32.1234C49.819 32.1234 49.8667 32.1092 49.9143 32.0949C49.9714 32.0758 50.0143 32.0187 50.0143 31.9568C50.0143 31.8949 49.9762 31.8377 49.9191 31.8139M41.9238 28.5853C41.9 28.552 41.8857 28.5139 41.8762 28.4758C42.0762 28.5806 42.2857 28.6234 42.3191 28.633C42.3286 28.633 42.3381 28.633 42.3429 28.633C42.5524 28.633 42.6 28.752 42.6048 28.7711C42.6048 28.7806 42.6048 28.7853 42.6143 28.7949C42.6429 28.8615 42.6286 28.9187 42.6048 28.9568C42.6048 28.9234 42.5905 28.8949 42.5762 28.8663C42.5095 28.7425 42.3619 28.7187 42.3333 28.7139C42.3238 28.7139 42.319 28.7139 42.3095 28.7139H42.2905C42.1095 28.7139 41.9857 28.6711 41.9238 28.5853ZM42.2762 32.1996C42.2762 32.1996 42.2619 32.2377 42.2571 32.2568C42.1238 32.3139 42.0238 32.4663 41.9762 32.5472C41.9714 32.5568 41.9619 32.5711 41.9286 32.5711C41.9095 32.5711 41.8952 32.5711 41.8952 32.5711C41.8762 32.5663 41.8524 32.5568 41.8333 32.5568C41.8429 32.533 41.8524 32.5187 41.8571 32.5092C41.9571 32.4853 42.0286 32.4139 42.0619 32.352C42.0619 32.3472 42.0667 32.3377 42.0714 32.333C42.0857 32.2949 42.1429 32.2806 42.1429 32.2806C42.1524 32.2806 42.1619 32.2758 42.1714 32.2711C42.219 32.252 42.2619 32.2234 42.2952 32.1901C42.2857 32.2044 42.281 32.2139 42.2762 32.2187M45.6143 32.0806C45.6143 32.0806 45.5952 32.0806 45.5857 32.0806C45.5714 32.0568 45.5524 32.0282 45.5333 31.9996L45.6476 31.9901C45.6762 32.0044 45.719 32.0568 45.7619 32.1187C45.7095 32.0853 45.6571 32.0758 45.6191 32.0758M46.0143 32.4282C46.0143 32.4282 45.9714 32.4044 45.9571 32.3901C45.9952 32.4139 46.0381 32.4234 46.0857 32.4282C46.0619 32.4377 46.019 32.4282 46.0143 32.4282ZM47.5619 31.333C47.519 31.3663 47.4095 31.452 47.3524 31.5663C47.3524 31.5663 47.3476 31.5568 47.3429 31.552C47.3429 31.5472 47.3429 31.5377 47.3381 31.533L47.2571 31.3472C47.3381 31.352 47.419 31.3425 47.4762 31.3139C47.5 31.3139 47.5286 31.3044 47.5619 31.2996C47.5619 31.3092 47.5619 31.3234 47.5571 31.333M48.8952 31.5806C48.981 31.6853 49.0191 31.7711 49.0381 31.8282C49 31.7853 48.9476 31.7615 48.8857 31.7615C48.7952 31.7615 48.7191 31.8187 48.6952 31.833C48.6905 31.8377 48.681 31.8425 48.6762 31.852C48.6238 31.9092 48.5476 31.933 48.5 31.9377C48.5286 31.9187 48.5571 31.8949 48.581 31.8615C48.6143 31.8139 48.6476 31.7377 48.6286 31.6092C48.6143 31.533 48.5429 31.4472 48.4238 31.4472C48.3667 31.4472 48.3048 31.4663 48.2381 31.5044C48.2238 31.5139 48.0952 31.5853 48.0571 31.752C48.0571 31.7568 48.0571 31.7615 48.0571 31.7663C48.0476 31.8282 48.0619 31.8806 48.1 31.9234C48.1095 31.933 48.1191 31.9425 48.1333 31.952C48.0667 31.9711 48.0048 31.9901 47.9857 31.9949C47.9571 32.0044 47.8619 32.033 47.8095 32.0472C47.8095 32.0472 47.8048 32.0472 47.8 32.0472C47.7619 32.0615 47.7381 32.0663 47.7286 32.0663C47.7095 32.0663 47.6857 32.0663 47.6714 32.0663C47.6667 32.0472 47.6619 32.0234 47.6571 32.0044C47.6667 31.9711 47.6952 31.933 47.7095 31.9187C47.7095 31.9187 47.719 31.9092 47.7238 31.9044C47.7476 31.8758 47.8048 31.8139 47.7905 31.7282C47.7905 31.7044 47.7762 31.6853 47.7619 31.6663C47.7429 31.6425 47.719 31.6234 47.6905 31.6092C47.7048 31.5949 47.719 31.5853 47.7381 31.5711C47.8429 31.4949 47.8571 31.3806 47.8571 31.3615C47.8571 31.3377 47.8905 31.2758 47.9238 31.233C47.9857 31.152 47.9619 31.0758 47.9524 31.0472C47.9238 30.9901 47.8667 30.9568 47.7952 30.9568C47.7667 30.9568 47.7429 30.9615 47.7333 30.9663C47.7048 30.9758 47.5381 30.9996 47.4048 31.0187C47.3857 31.0187 47.3667 31.0282 47.3524 31.0377C47.5 30.6901 47.3524 30.3949 47.3429 30.3806C47.3095 30.3187 47.2429 30.2853 47.1714 30.3044C47.1048 30.3234 47.0571 30.3806 47.0571 30.452C47.0571 30.5472 47.0048 30.7234 46.9714 30.8092C46.9714 30.8092 46.9714 30.8139 46.9714 30.8187C46.9333 30.933 46.8905 30.9711 46.8857 30.9758C46.881 30.9758 46.8714 30.9806 46.8667 30.9853C46.8381 30.9949 46.7429 31.0234 46.6524 31.0425C46.6476 31.0425 46.6381 31.0425 46.6333 31.0472C46.5381 31.0853 46.5048 31.152 46.4952 31.1901C46.4714 31.2663 46.5 31.3377 46.5333 31.3853C46.5381 31.3949 46.5476 31.3996 46.5524 31.4044C46.5619 31.4139 46.5762 31.4425 46.5905 31.4663C46.6238 31.5568 46.7333 31.733 46.781 31.8044C46.7905 31.8187 46.7952 31.8234 46.8095 31.833C46.8095 31.833 46.8095 31.8425 46.8095 31.8472C46.8095 31.8615 46.8095 31.8663 46.8095 31.8806C46.8095 31.9092 46.781 31.9996 46.7476 32.0711C46.7476 32.0806 46.7381 32.0901 46.7381 32.0996C46.7381 32.0949 46.7381 32.0853 46.7381 32.0806C46.7429 31.6234 46.381 31.4853 46.3619 31.4806C46.1238 31.3949 46.0286 31.0853 46.0238 31.0853C46.0191 31.0663 46.0095 31.052 46 31.0377C45.9476 30.9663 45.881 30.9568 45.8476 30.9568C45.7667 30.9568 45.6905 31.0139 45.6524 31.1092C45.6476 31.1234 45.6429 31.1377 45.6429 31.152C45.6381 31.1996 45.6429 31.2472 45.6429 31.2901C45.4333 31.2853 45.2429 31.2425 45.2381 31.2425C45.2381 31.2425 45.2333 31.2425 45.2286 31.2425C45.1714 31.233 45.1143 31.2282 45.0476 31.2282C44.8714 31.2282 44.7095 31.2615 44.6714 31.2711C44.6524 31.2711 44.6381 31.2711 44.619 31.2711C44.5476 31.2711 44.5095 31.2472 44.5095 31.2472C44.5095 31.2472 44.5048 31.2472 44.5 31.2377C44.4571 31.1949 44.4524 30.9615 44.4857 30.7615C44.4857 30.7615 44.4857 30.7568 44.4857 30.752C44.4952 30.6711 44.4762 30.6092 44.4381 30.5615C44.4048 30.5234 44.3571 30.5044 44.3048 30.5044C44.2905 30.5044 44.2667 30.5044 44.2524 30.5139C44.2333 30.5187 44.2143 30.533 44.1952 30.5472C44.0381 30.6853 44.0333 31.0568 44.0429 31.2472C43.8238 31.6711 43.4048 31.6996 43.3333 31.6996C43.3 31.6996 43.2667 31.6949 43.2333 31.6949C43.1286 31.6949 43.0381 31.7139 43.0286 31.7139C42.7619 31.7615 42.5714 31.8949 42.4476 32.0092C42.4905 31.9472 42.5143 31.8949 42.5238 31.8758C42.5524 31.8187 42.581 31.752 42.6 31.7044C42.6143 31.7044 42.6286 31.7044 42.6333 31.7092C42.6429 31.7092 42.6476 31.7092 42.6571 31.7092C42.6762 31.7092 42.6905 31.7092 42.7095 31.7092C42.7952 31.7092 42.8524 31.6901 42.881 31.6711L43.1095 31.5377C43.1095 31.5377 43.1238 31.5282 43.1333 31.5187C43.2762 31.3901 43.2524 31.1996 43.1667 31.0711C43.0429 30.8234 43.0714 30.5425 43.0714 30.5377C43.0762 30.4901 43.0571 30.4425 43.0238 30.4139C43.0048 30.3949 42.9762 30.3806 42.9524 30.3758C43.219 30.2568 43.4238 30.0806 43.4381 30.0711C43.4429 30.0663 43.4476 30.0615 43.4524 30.0568C43.6476 29.8282 43.9238 29.8044 44.0381 29.8044C44.0619 29.8044 44.0762 29.8044 44.0762 29.8044C44.0857 29.8044 44.1 29.8044 44.1095 29.8044C44.4286 29.7663 44.6 29.6092 44.619 29.5901C44.6238 29.5853 44.6286 29.5806 44.6333 29.5711C44.8333 29.2996 45.0857 29.2711 45.1857 29.2711C45.2 29.2711 45.2095 29.2711 45.2095 29.2711C45.2238 29.2711 45.2333 29.2711 45.2476 29.2711C45.4524 29.2472 45.5381 29.1758 45.5667 29.1092C45.7286 28.8615 46.1143 28.8092 46.1143 28.8092C46.119 28.8092 46.1286 28.8092 46.1333 28.8092C46.381 28.7472 46.6667 28.552 46.681 28.5472C46.681 28.5472 46.6857 28.5472 46.6905 28.5425C46.7667 28.4806 46.8524 28.452 46.9571 28.452C47.1762 28.452 47.3905 28.5853 47.4381 28.6187C47.5476 28.733 47.6857 28.833 47.6905 28.8377C47.9762 29.0377 48.1143 29.1949 48.1143 29.1949C48.1143 29.1949 48.1143 29.1996 48.1238 29.2044C48.2238 29.3092 48.3667 29.4806 48.3667 29.4806C48.3714 29.4853 48.3762 29.4949 48.3857 29.4996C48.5524 29.6425 48.6619 29.852 48.6619 29.8568C48.6667 29.8663 48.6714 29.8758 48.681 29.8853C48.8191 30.0568 48.8095 30.2806 48.8095 30.2853C48.8095 30.2853 48.8095 30.2901 48.8095 30.2949C48.8095 30.3568 48.8381 30.4806 48.8619 30.5711C48.7905 30.4853 48.7143 30.3853 48.7 30.3568C48.7 30.3472 48.6905 30.3377 48.6857 30.333C48.6524 30.2901 48.5857 30.2425 48.5048 30.2425C48.4571 30.2425 48.3667 30.2615 48.2905 30.3758C48.281 30.3901 48.2762 30.3996 48.2714 30.4139C48.2714 30.4139 48.2619 30.4425 48.2571 30.452C48.2571 30.452 48.1667 30.6282 48.1429 30.6758C48.1286 30.6996 48.1048 30.752 48.1048 30.8139C48.1048 30.8806 48.1524 30.9377 48.2191 30.9568C48.2524 30.9663 48.3667 30.9806 48.4762 30.852C48.5048 30.8806 48.5286 30.9044 48.5429 30.9187C48.5524 30.933 48.5619 30.9758 48.5571 31.1092C48.5571 31.152 48.5762 31.1996 48.6095 31.2282C48.6429 31.2568 48.6905 31.2711 48.7333 31.2615C48.7429 31.2615 48.9333 31.2282 48.9667 30.9758C49.0191 31.0472 49.0429 31.1711 49.0524 31.2472C49.0191 31.2472 48.981 31.2472 48.9524 31.2663C48.9048 31.2901 48.8667 31.3282 48.8524 31.3806C48.8238 31.4711 48.8762 31.5568 48.9 31.5901" fill="white"></path><path d="M47.1143 29.0381C47.0762 29.0381 47 29.0524 46.9381 29.1428C46.9381 29.1428 46.9381 29.1476 46.9381 29.1524C46.8667 29.2809 46.9 29.3809 46.9286 29.4286C46.9286 29.4381 46.9381 29.4428 46.9429 29.4524C46.9429 29.4571 47.0571 29.6 47.0714 29.8952C47.0714 29.9667 47.1286 30.0238 47.2 30.0381C47.2095 30.0381 47.2143 30.0381 47.2238 30.0381C47.2857 30.0381 47.3429 30 47.3667 29.9381C47.3714 29.919 47.5286 29.4762 47.3 29.1524C47.2667 29.0952 47.2 29.0428 47.119 29.0428" fill="white"></path><path d="M58.8524 32.452C58.8524 32.452 58.8381 32.4282 58.8333 32.3853C58.8333 32.3377 58.8238 32.2139 58.7429 32.1329C58.7048 32.0948 58.6619 32.0758 58.6095 32.0663C58.6095 32.0663 58.6095 32.0615 58.6095 32.0567C58.5905 31.971 58.519 31.9186 58.4667 31.8996C58.4476 31.8901 58.381 31.8424 58.3333 31.7996C58.281 31.7567 58.2143 31.7282 58.1429 31.7282C58.1238 31.7282 58.1 31.7282 58.0857 31.7329C57.981 31.7567 57.9429 31.8234 57.9286 31.8567C57.9238 31.871 57.919 31.8853 57.919 31.9044C57.8619 31.8424 57.8143 31.7567 57.8 31.7234C57.8 31.7234 57.8 31.7186 57.8 31.7139C57.7571 31.6282 57.719 31.5186 57.7143 31.5139C57.7095 31.4996 57.7 31.4853 57.6905 31.471C57.6571 31.4282 57.5905 31.3758 57.4667 31.3758C57.4238 31.3758 57.381 31.3805 57.3619 31.3853C57.3381 31.3853 57.3238 31.3853 57.3143 31.3853L57.1143 31.271C57.1143 31.271 57.1238 31.2329 57.1333 31.2186C57.1333 31.2139 57.1429 31.2044 57.1429 31.1996C57.2381 31.0139 57.2667 30.8186 57.2762 30.6805C57.519 30.7091 57.7095 30.6948 57.8857 30.6329C58.4476 30.4091 58.4095 29.8758 58.3143 29.6186C58.1905 29.2234 57.9048 29.0948 57.8952 29.0901C57.8952 29.0901 57.8952 29.0901 57.8857 29.0901C57.8429 29.071 57.7952 29.0377 57.7667 29.0044C58.0381 29.0044 58.2381 28.9186 58.3619 28.7567C58.5571 28.4996 58.4619 28.1472 58.4571 28.1282C58.4429 28.0758 58.3952 28.0329 58.3429 28.0234C58.2857 28.0139 58.2286 28.0329 58.1952 28.0758C58.081 28.2139 57.7952 28.2996 57.681 28.3234C57.2857 28.3377 57.1762 28.6044 57.1524 28.6758C57.0381 28.9615 57.219 29.1853 57.3286 29.2663C57.5714 29.4424 57.7238 29.6186 57.7524 29.652C57.9286 29.9234 57.8143 30.0567 57.8 30.071C57.7286 30.1377 57.6429 30.171 57.5381 30.171C57.2238 30.171 56.8714 29.8853 56.8143 29.8424C56.5 29.4853 56.0571 29.4901 55.9571 29.4948C55.7714 29.471 55.6667 29.3948 55.6429 29.371C55.3286 28.9615 54.9143 28.9615 54.819 28.9663C54.7714 28.9615 54.7429 28.952 54.7333 28.9424C54.5143 28.5948 54.0571 28.5186 53.9762 28.5044C53.7952 28.4567 53.5714 28.3091 53.5381 28.2901C53.4095 28.1901 53.2619 28.1377 53.0905 28.1377C52.7429 28.1377 52.4381 28.3567 52.4238 28.3663C52.4143 28.371 52.4095 28.3805 52.4 28.3853C52.3095 28.4805 52.181 28.5758 52.181 28.5758C51.8857 28.7853 51.7333 28.952 51.7048 28.9805C51.6095 29.0805 51.4857 29.2282 51.4524 29.2663C51.2714 29.4234 51.1524 29.6329 51.1238 29.6901C50.9333 29.9282 50.9333 30.2234 50.9381 30.2805C50.9381 30.3091 50.9095 30.4186 50.8857 30.5186C50.8714 30.5663 50.8333 30.7329 50.819 30.7996C50.7381 30.9282 50.7048 31.0996 50.6952 31.1948C50.5095 31.3567 50.4238 31.5424 50.4 31.6091C50.3238 31.7091 50.181 31.7853 50.1286 31.8044C50.0714 31.8282 50.0333 31.8853 50.0333 31.9472C50.0333 32.0091 50.0762 32.0663 50.1333 32.0853C50.181 32.0996 50.2286 32.1139 50.2762 32.1139C50.2619 32.1424 50.2524 32.171 50.2571 32.2044C50.2619 32.271 50.3095 32.3234 50.3762 32.3377C50.4333 32.352 50.4952 32.3567 50.5524 32.3567C50.8714 32.3567 51.0952 32.1663 51.181 32.0663C51.3286 32.1996 51.5095 32.2139 51.5857 32.2139C51.619 32.2139 51.6333 32.2139 51.6333 32.2139C51.6333 32.2139 51.6429 32.2139 51.6476 32.2139C51.6905 32.2044 51.7286 32.2091 51.7286 32.2091C51.7381 32.2091 51.7476 32.2091 51.7524 32.2091C51.7905 32.2091 51.8857 32.2329 51.9571 32.2615C52.0048 32.2758 52.119 32.3091 52.1476 32.3186C52.2429 32.352 52.2952 32.3567 52.319 32.3567C52.319 32.3567 52.3286 32.3567 52.3333 32.3567C52.3571 32.3615 52.3762 32.3663 52.4 32.3663C52.519 32.3663 52.5857 32.2853 52.6048 32.2615C52.6381 32.2139 52.6619 32.1472 52.6762 32.0853L52.7905 32.2567C52.8476 32.3567 52.9476 32.4139 53.0762 32.4139C53.119 32.4139 53.1524 32.4091 53.1619 32.4044C53.1619 32.4044 53.1714 32.4044 53.1762 32.4044C53.1952 32.4044 53.2238 32.4139 53.2381 32.4234C53.3429 32.4948 53.6714 32.6186 53.8238 32.671C53.881 32.6996 53.9429 32.7139 54.0143 32.7139C54.081 32.7139 54.1333 32.6996 54.1429 32.6948C54.3048 32.6377 54.3952 32.4805 54.4048 32.4663C54.4095 32.4567 54.4143 32.4472 54.419 32.4377C54.4333 32.3948 54.4429 32.3758 54.4524 32.3615C54.4524 32.3615 54.4524 32.3615 54.4571 32.3615C54.4762 32.3615 54.4905 32.3615 54.5048 32.3615C54.619 32.3615 54.7 32.2901 54.7238 32.2139C54.7524 32.1615 54.8143 32.0758 54.8429 32.0377C54.9143 31.952 54.9095 31.8758 54.8952 31.8329C54.8714 31.752 54.7952 31.7044 54.7381 31.6901C54.7286 31.6901 54.719 31.6901 54.7143 31.6901L54.419 31.6663C54.419 31.6663 54.4048 31.6663 54.4 31.6663C54.1857 31.6663 54.019 31.9567 53.9429 32.1091H53.9333C53.7762 32.052 53.681 32.0139 53.6286 31.9901C53.6571 31.8186 53.7857 31.7615 53.8 31.7567C53.9333 31.7091 54.0333 31.6234 54.1143 31.5377C54.1381 31.5567 54.1619 31.5663 54.1905 31.571C54.2476 31.5805 54.3143 31.5805 54.381 31.5805C54.6238 31.5805 54.8476 31.5329 54.8857 31.5234C54.9238 31.5186 54.9667 31.5139 55.0143 31.5139C55.1714 31.5139 55.3238 31.5472 55.3238 31.552H55.3333C55.4238 31.5663 55.5095 31.5615 55.5762 31.5424C55.5619 31.5901 55.5762 31.6424 55.6048 31.6758C55.619 31.6948 55.6524 31.7663 55.681 31.8329C55.7048 31.9853 55.8286 32.0615 55.8952 32.0805C55.9476 32.0996 56.0952 32.171 56.181 32.2139C56.2429 32.2567 56.3286 32.2758 56.4476 32.2758C56.5952 32.2758 56.7524 32.2424 56.7524 32.2424C56.7714 32.2424 56.7952 32.2377 56.8143 32.2377C57.0143 32.2377 57.1619 32.3901 57.1667 32.3948C57.2667 32.4948 57.3952 32.552 57.5429 32.552C57.6048 32.552 57.6571 32.5424 57.6905 32.5329C57.7238 32.5567 57.7762 32.6234 57.8143 32.6805C57.8762 32.7948 57.9905 32.8615 58.1238 32.8615C58.1905 32.8615 58.2476 32.8424 58.2571 32.8424C58.2571 32.8424 58.281 32.8377 58.319 32.8377C58.3476 32.8377 58.3667 32.8377 58.3714 32.8377C58.4048 32.8377 58.4429 32.8377 58.4714 32.8139C58.4857 32.8186 58.5 32.8234 58.5143 32.8282C58.519 32.8282 58.5619 32.8377 58.6143 32.8377C58.8286 32.8377 58.8857 32.7139 58.9 32.6615C58.9 32.6567 58.9 32.6472 58.9 32.6424C58.9 32.6234 58.9095 32.5472 58.8524 32.452ZM57.7381 28.7044C57.7381 28.7044 57.7238 28.7044 57.7143 28.7044C57.6857 28.7044 57.5381 28.7377 57.4714 28.8567C57.4571 28.8853 57.4476 28.9139 57.4429 28.9472C57.419 28.9044 57.4048 28.852 57.4333 28.7853C57.4333 28.7758 57.4381 28.771 57.4381 28.7663C57.4429 28.7424 57.4905 28.6329 57.7 28.6282C57.7095 28.6282 57.719 28.6282 57.7238 28.6282C57.7571 28.6234 57.9714 28.5758 58.1667 28.471C58.1571 28.5091 58.1429 28.5472 58.119 28.5805C58.0524 28.6663 57.9286 28.7091 57.7524 28.7091H57.7333L57.7381 28.7044ZM54.3952 31.9663L54.5095 31.9758C54.4905 32.0044 54.4762 32.0282 54.4571 32.0567C54.4143 32.052 54.3524 32.0567 54.281 32.0996C54.3238 32.0329 54.3667 31.9853 54.3952 31.971M54.0905 32.3758C54.0905 32.3758 54.0571 32.4091 54.0381 32.4139C54.0381 32.4139 53.9905 32.4234 53.9667 32.4139C54.0143 32.4139 54.0571 32.3996 54.0952 32.3758M52.7143 31.5186C52.7143 31.5186 52.7095 31.5329 52.7095 31.5377C52.7095 31.5377 52.7048 31.5472 52.7 31.552C52.6476 31.4377 52.5333 31.352 52.4905 31.3186C52.4905 31.3091 52.4905 31.2948 52.4857 31.2853C52.519 31.2901 52.5524 31.2948 52.5762 31.2996C52.6333 31.3282 52.7143 31.3377 52.7952 31.3329L52.7143 31.5186ZM57.0286 31.6996C57.0286 31.6996 56.9286 31.6805 56.819 31.6805C56.781 31.6805 56.7476 31.6805 56.719 31.6853C56.6476 31.6853 56.2286 31.6567 56.0095 31.2329C56.019 31.0424 56.0095 30.671 55.8571 30.5329C55.8429 30.5186 55.8238 30.5091 55.8 30.4996C55.7857 30.4996 55.7619 30.4901 55.7476 30.4901C55.6952 30.4901 55.6476 30.5139 55.6143 30.5472C55.5714 30.5948 55.5571 30.6567 55.5667 30.7377C55.5667 30.7377 55.5667 30.7424 55.5667 30.7472C55.6 30.9472 55.5952 31.1805 55.5571 31.2186C55.5524 31.2186 55.5524 31.2186 55.5476 31.2282C55.5476 31.2282 55.5095 31.2567 55.4333 31.2567C55.419 31.2567 55.4 31.2567 55.381 31.2567C55.3476 31.2472 55.181 31.2139 55.0048 31.2139C54.9381 31.2139 54.8762 31.2139 54.8238 31.2282C54.8238 31.2282 54.819 31.2282 54.8143 31.2282C54.8143 31.2282 54.6238 31.271 54.4095 31.2758C54.4143 31.2329 54.419 31.1901 54.4095 31.1377C54.4095 31.1234 54.4048 31.1091 54.4 31.0948C54.3619 30.9996 54.2857 30.9424 54.2048 30.9424C54.1714 30.9424 54.1048 30.952 54.0524 31.0234C54.0429 31.0377 54.0333 31.052 54.0286 31.071C54.0286 31.071 53.9286 31.3805 53.6905 31.4663C53.6762 31.471 53.3095 31.6091 53.3143 32.0663C53.3143 32.0758 53.3143 32.0805 53.3143 32.0901C53.3143 32.0758 53.3048 32.0663 53.3 32.052C53.2667 31.9853 53.2381 31.8948 53.2381 31.8663C53.2381 31.8567 53.2381 31.8424 53.2381 31.8329V31.8234C53.2524 31.8139 53.2619 31.7996 53.2714 31.7901C53.319 31.7139 53.4286 31.5377 53.4619 31.4472C53.4714 31.4234 53.4905 31.3996 53.4952 31.3853C53.5048 31.3805 53.5095 31.371 53.5143 31.3615C53.5476 31.3186 53.5762 31.2424 53.5524 31.1663C53.5429 31.1282 53.5095 31.0615 53.4143 31.0234C53.4095 31.0234 53.4 31.0234 53.3952 31.0186C53.3143 30.9996 53.2095 30.971 53.181 30.9615C53.1762 30.9615 53.1667 30.952 53.1619 30.952C53.1524 30.9472 53.1095 30.9091 53.0762 30.7948C53.0762 30.7948 53.0762 30.7901 53.0762 30.7853C53.0524 30.7282 52.9905 30.5329 52.9952 30.4234C52.9952 30.352 52.9476 30.2948 52.881 30.2758C52.8143 30.2567 52.7429 30.2901 52.7095 30.352C52.7 30.3663 52.5524 30.6615 52.7 31.0091C52.6857 30.9996 52.6667 30.9948 52.6476 30.9901C52.5143 30.971 52.3524 30.9424 52.3143 30.9329C52.3048 30.9329 52.281 30.9234 52.2571 30.9234C52.1857 30.9234 52.1286 30.9567 52.1 31.0139C52.0857 31.0424 52.0619 31.1139 52.1286 31.1996C52.1619 31.2472 52.1905 31.3091 52.1952 31.3282C52.1952 31.352 52.2143 31.4663 52.319 31.5424C52.3333 31.552 52.3476 31.5663 52.3619 31.5805C52.3333 31.5948 52.3095 31.6139 52.2905 31.6377C52.2905 31.6377 52.2667 31.6758 52.2619 31.6996C52.2429 31.7853 52.3 31.8472 52.3238 31.8758C52.3238 31.8758 52.3333 31.8853 52.3381 31.8901C52.3524 31.9044 52.3857 31.9424 52.3905 31.9758C52.3905 31.9996 52.381 32.0234 52.3762 32.0377C52.3571 32.0377 52.3381 32.0377 52.319 32.0377C52.3048 32.0377 52.281 32.0282 52.2476 32.0186C52.2476 32.0186 52.2429 32.0186 52.2381 32.0186C52.1857 32.0044 52.0952 31.9805 52.0667 31.9663C52.0476 31.9615 51.9905 31.9377 51.919 31.9234C51.9333 31.9139 51.9429 31.9044 51.9524 31.8948C51.9857 31.8567 52 31.8044 51.9952 31.7377C51.9952 31.7329 51.9952 31.7282 51.9952 31.7234C51.9571 31.5567 51.8286 31.4853 51.8238 31.4805C51.7524 31.4377 51.6905 31.4186 51.6333 31.4186C51.5143 31.4186 51.4429 31.5044 51.4238 31.5853C51.4048 31.7044 51.4381 31.7853 51.4714 31.8329C51.4952 31.8663 51.5238 31.8901 51.5524 31.9091C51.5 31.9044 51.4286 31.8805 51.3762 31.8234C51.3714 31.8186 51.3667 31.8091 51.3571 31.8044C51.3333 31.7853 51.2571 31.7329 51.1667 31.7329C51.1048 31.7329 51.0524 31.7567 51.0143 31.7996C51.0333 31.7424 51.0762 31.6567 51.1619 31.5472C51.1857 31.5139 51.2333 31.4329 51.2095 31.3424C51.1952 31.2901 51.1571 31.252 51.1095 31.2282C51.081 31.2139 51.0429 31.2091 51.0095 31.2091C51.019 31.1282 51.0429 31.0091 51.0952 30.9377C51.1286 31.1853 51.319 31.2186 51.3286 31.2234C51.3714 31.2329 51.419 31.2186 51.4524 31.1853C51.4857 31.152 51.5048 31.1139 51.5048 31.0663C51.5 30.9377 51.5143 30.8948 51.519 30.8758C51.5333 30.8615 51.5619 30.8377 51.5857 30.8091C51.7 30.9424 51.8095 30.9234 51.8429 30.9186C51.9095 30.9044 51.9571 30.8424 51.9571 30.7758C51.9571 30.7139 51.9333 30.6615 51.919 30.6377C51.8952 30.5948 51.8238 30.4472 51.8095 30.4186C51.8 30.3996 51.7952 30.3758 51.7952 30.3758C51.7952 30.3615 51.7857 30.352 51.7762 30.3377C51.7 30.2234 51.6095 30.2044 51.5619 30.2044C51.481 30.2044 51.4143 30.252 51.381 30.2948C51.3762 30.3044 51.3714 30.3091 51.3667 30.3186C51.3524 30.3472 51.2762 30.4472 51.2 30.5329C51.2238 30.4424 51.2524 30.3186 51.2524 30.2615C51.2524 30.2615 51.2524 30.2567 51.2524 30.252C51.2524 30.252 51.2429 30.0234 51.381 29.852C51.3857 29.8424 51.3952 29.8329 51.4 29.8234C51.4 29.8234 51.5143 29.6091 51.6762 29.4663C51.681 29.4615 51.6905 29.452 51.6952 29.4472C51.6952 29.4472 51.8381 29.271 51.9381 29.171C51.9381 29.171 51.9381 29.1663 51.9429 29.1615C51.9429 29.1615 52.081 29.0044 52.3667 28.8044C52.3714 28.8044 52.5095 28.6996 52.619 28.5853C52.6667 28.552 52.881 28.4186 53.1 28.4186C53.2048 28.4186 53.2905 28.4472 53.3667 28.5091C53.3667 28.5091 53.3714 28.5091 53.3762 28.5139C53.3905 28.5234 53.6714 28.7139 53.9238 28.7758C53.9286 28.7758 53.9381 28.7758 53.9429 28.7758C53.9429 28.7758 54.3333 28.8282 54.4905 29.0758C54.5238 29.1424 54.6048 29.2139 54.8095 29.2377C54.819 29.2377 54.8333 29.2377 54.8429 29.2377C54.8429 29.2377 54.8571 29.2377 54.8714 29.2377C54.9714 29.2377 55.2238 29.2663 55.4238 29.5377C55.4238 29.5424 55.4333 29.552 55.4381 29.5567C55.4571 29.5758 55.6238 29.7329 55.9476 29.771C55.9571 29.771 55.9714 29.771 55.981 29.771C55.981 29.771 56 29.771 56.0238 29.771C56.1333 29.771 56.4143 29.7948 56.6095 30.0234C56.6143 30.0282 56.619 30.0329 56.6238 30.0377C56.6381 30.0472 56.8429 30.2234 57.1095 30.3424C57.081 30.3472 57.0571 30.3615 57.0381 30.3805C57.0048 30.4139 56.9857 30.4567 56.9905 30.5044C56.9905 30.5044 57.019 30.7901 56.8952 31.0377C56.8095 31.1663 56.7857 31.3567 56.9286 31.4853C56.9381 31.4901 56.9429 31.4996 56.9524 31.5044L57.181 31.6377C57.2095 31.6567 57.2667 31.6758 57.3524 31.6758C57.3667 31.6758 57.3857 31.6758 57.4048 31.6758C57.4143 31.6758 57.419 31.6758 57.4286 31.6758C57.4333 31.6758 57.4476 31.6758 57.4619 31.671C57.481 31.7186 57.5048 31.7805 57.5381 31.8424C57.5476 31.8615 57.5714 31.9139 57.6095 31.9758C57.4857 31.8615 57.3 31.7282 57.0333 31.6805M58.1619 32.5377C58.1619 32.5377 58.1429 32.5424 58.1238 32.5424C58.0905 32.5424 58.0857 32.5329 58.0762 32.5139C58.0333 32.4377 57.9286 32.2853 57.8 32.2282C57.8 32.2091 57.7905 32.1901 57.781 32.171C57.781 32.171 57.7714 32.1567 57.7619 32.1424C57.8 32.1758 57.8429 32.2044 57.8905 32.2234C57.9 32.2234 57.9095 32.2282 57.9143 32.2329C57.9286 32.2329 57.9762 32.2567 57.9857 32.2853C57.9857 32.2948 57.9905 32.2996 57.9952 32.3044C58.0286 32.3663 58.1 32.4377 58.2 32.4615C58.2048 32.471 58.2143 32.4853 58.2238 32.5091C58.2 32.5091 58.181 32.5186 58.1619 32.5234" fill="white"></path><path d="M53.0667 29.1428C53.0095 29.0524 52.9333 29.0381 52.8905 29.0381C52.8048 29.0381 52.7429 29.0952 52.7095 29.1476C52.4857 29.4667 52.6381 29.9143 52.6429 29.9333C52.6667 29.9952 52.7238 30.0333 52.7857 30.0333C52.7952 30.0333 52.8 30.0333 52.8095 30.0333C52.881 30.0238 52.9333 29.9619 52.9381 29.8905C52.9524 29.5905 53.0619 29.4524 53.0667 29.4476C53.0714 29.4381 53.081 29.4333 53.0857 29.4238C53.1143 29.3762 53.1476 29.2762 53.0762 29.1476C53.0762 29.1476 53.0762 29.1428 53.0762 29.1381" fill="white"></path><path fill-rule="evenodd" clip-rule="evenodd" d="M47.0524 29.3522C47.0286 29.3094 47.0381 29.2665 47.0619 29.2237C47.1143 29.1427 47.1667 29.2332 47.1667 29.2332C47.3524 29.4951 47.2143 29.8856 47.2143 29.8856C47.1952 29.5237 47.0476 29.3522 47.0476 29.3522M48.6667 31.0856C48.6667 31.0094 48.6762 30.8379 48.6 30.776C48.5714 30.7522 48.4571 30.6284 48.4571 30.6284C48.4381 30.5998 48.4286 30.5951 48.4286 30.5951C48.4048 30.5951 48.3762 30.6475 48.3762 30.6475C48.2952 30.8046 48.2143 30.7856 48.2143 30.7856C48.2143 30.757 48.2333 30.7236 48.2333 30.7236C48.2571 30.6808 48.3476 30.4951 48.3476 30.4951C48.3619 30.4665 48.3714 30.4332 48.3714 30.4332C48.4476 30.3094 48.5238 30.4046 48.5238 30.4046C48.5571 30.4713 48.7333 30.6808 48.7333 30.6808C48.7714 30.7284 48.7762 30.776 48.7762 30.776C48.819 31.0617 48.6714 31.0856 48.6714 31.0856M48.2095 31.8189C48.1762 31.8189 48.1667 31.8046 48.1714 31.7713C48.1952 31.6713 48.2762 31.6237 48.2762 31.6237C48.4286 31.5332 48.4476 31.6237 48.4476 31.6237C48.4762 31.7856 48.3476 31.8094 48.3476 31.8094C48.3238 31.8189 48.2095 31.8189 48.2095 31.8189ZM41.5381 32.2951C41.5381 32.2951 41.5714 32.3189 41.5524 32.3665C41.5524 32.3665 41.4667 32.5998 41.4714 32.6808C41.4714 32.6808 41.281 32.7141 41.2571 32.6189C41.2571 32.6189 41.2524 32.5808 41.281 32.5284C41.281 32.5284 41.3143 32.4808 41.319 32.3903C41.319 32.3903 41.319 32.1665 41.4619 32.2237C41.4905 32.2379 41.5143 32.2617 41.5333 32.2903M41.7667 31.9189C41.8 31.8903 41.8429 31.876 41.8857 31.8856C41.9762 31.9046 41.9238 31.9856 41.9238 31.9856C41.8857 32.057 41.7667 32.1713 41.7667 32.1713C41.6571 32.2522 41.5714 32.157 41.5714 32.157C41.4905 32.076 41.5952 32.0379 41.5952 32.0379C41.6571 32.0141 41.7667 31.9141 41.7667 31.9141M42.8762 30.5094C42.8762 30.5094 42.8429 30.8427 42.9905 31.1332C42.9905 31.1332 43.1 31.2903 42.9905 31.3903L42.7619 31.5236C42.7619 31.5236 42.7333 31.5475 42.6286 31.5379C42.6286 31.5379 42.4857 31.5046 42.4381 31.5665C42.4381 31.5665 42.3952 31.6856 42.3476 31.7856C42.3476 31.7856 42.2429 32.0237 42.0714 32.0998C42.0714 32.0998 41.9333 32.1332 41.8905 32.2522C41.8905 32.2522 41.8476 32.3379 41.7571 32.3379C41.7571 32.3379 41.6905 32.357 41.6476 32.5046C41.6476 32.5046 41.6238 32.5998 41.6238 32.6713C41.6238 32.6713 41.7381 32.657 41.8095 32.6856C41.8095 32.6856 41.9905 32.7475 42.0714 32.5951C42.0714 32.5951 42.2286 32.3284 42.3429 32.3665C42.3429 32.3665 42.5762 32.4427 42.7429 32.276C42.7429 32.276 42.9667 32.0284 43.2905 32.0808C43.2905 32.0808 43.6524 32.1522 43.7619 32.0713C43.7619 32.0713 43.9905 31.9522 44.0762 31.9237C44.0762 31.9237 44.181 31.8951 44.1905 31.7808C44.1905 31.7808 44.2524 31.6189 44.3 31.5665H44.1286C44.1286 31.5665 43.9714 31.8237 43.7095 31.9046C43.7095 31.9046 43.5667 31.9617 43.2762 31.9141C43.2762 31.9141 42.8619 31.8189 42.4952 32.2141C42.4952 32.2141 42.4429 32.2856 42.3762 32.257C42.3762 32.257 42.5762 31.9141 43.0238 31.8284C43.0238 31.8284 43.1667 31.7998 43.2905 31.8189C43.2905 31.8189 43.8857 31.8379 44.1667 31.2475C44.1667 31.2475 44.1381 30.7475 44.2714 30.6284C44.2714 30.6284 44.3238 30.6141 44.3143 30.7094C44.3143 30.7094 44.2238 31.2332 44.3952 31.3379C44.3952 31.3379 44.4952 31.4141 44.6762 31.3856C44.6762 31.3856 44.9524 31.3189 45.1809 31.357C45.1809 31.357 45.5286 31.4379 45.8286 31.3998C45.8286 31.3998 45.7524 31.2808 45.7667 31.1379C45.7667 31.1379 45.8095 31.0379 45.8571 31.0998C45.8571 31.0998 45.9714 31.4808 46.2857 31.5951C46.2857 31.5951 46.5667 31.6951 46.5619 32.0522C46.5619 32.0522 46.519 32.0998 46.1476 32.2332C46.1476 32.2332 46.0095 32.276 45.9619 32.1713C45.9619 32.1713 45.781 31.7856 45.6286 31.7998L45.3333 31.8237C45.3333 31.8237 45.2333 31.8475 45.3048 31.9284C45.3048 31.9284 45.4048 32.0617 45.4476 32.1427C45.4476 32.1427 45.4571 32.2094 45.5524 32.1951C45.5524 32.1951 45.6809 32.1284 45.7571 32.3713C45.7571 32.3713 45.8238 32.4951 45.9381 32.5332C45.9381 32.5332 46.0429 32.5665 46.1429 32.5141C46.1429 32.5141 46.6286 32.3379 46.7095 32.2713C46.7095 32.2713 46.8143 32.2141 46.8952 32.2427C46.8952 32.2427 47.0429 32.276 47.1 32.1617L47.2524 31.9284C47.2524 31.9284 47.2857 31.8713 47.281 31.7998C47.281 31.7998 47.2952 31.7284 47.2333 31.657C47.2333 31.657 47.1762 31.5951 47.1667 31.5522L47.0619 31.2998C47.0619 31.2998 47.019 31.2332 46.9714 31.2046L46.8286 31.2141C46.8286 31.2141 46.9286 31.4665 47 31.5665C47 31.5665 47.0952 31.7141 47.0905 31.8094C47.0905 31.8094 47.0857 31.876 47.0571 31.9046C47.0571 31.9046 47.0238 31.957 47.0095 31.9808C47.0095 31.9808 46.9667 32.076 46.9333 32.0951C46.9333 32.0951 46.8714 32.1332 46.8571 32.1332C46.8571 32.1332 46.8286 32.1427 46.8524 32.0951C46.8524 32.0951 46.9333 31.9284 46.9286 31.8379C46.9286 31.8379 46.9429 31.7427 46.8762 31.6903C46.8762 31.6903 46.719 31.4427 46.7 31.3713C46.7 31.3713 46.6524 31.2713 46.6238 31.257C46.6238 31.257 46.5714 31.1856 46.6571 31.1522C46.6571 31.1522 46.8762 31.1046 46.9143 31.076C46.9143 31.076 47.019 31.0427 47.0857 30.8237C47.0857 30.8237 47.181 30.5665 47.1762 30.4094C47.1762 30.4094 47.3619 30.7665 47.0667 31.1237C47.0667 31.1237 47.3 31.1903 47.3952 31.1237C47.3952 31.1237 47.6857 31.0808 47.7429 31.0665C47.7429 31.0665 47.8143 31.0475 47.7762 31.0998C47.7762 31.0998 47.6905 31.2237 47.6809 31.3046C47.6809 31.3046 47.6762 31.3713 47.6238 31.4094C47.6238 31.4094 47.4571 31.5237 47.4429 31.6332C47.4429 31.6332 47.4095 31.7379 47.481 31.7141C47.481 31.7141 47.5809 31.6665 47.6143 31.7141C47.6143 31.7141 47.6238 31.7141 47.5857 31.7617C47.5857 31.7617 47.4857 31.8475 47.481 31.9617C47.481 31.9617 47.5 32.0951 47.5333 32.1379C47.5333 32.1379 47.5762 32.1998 47.6476 32.1808C47.6476 32.1808 47.6667 32.1665 47.7 32.176C47.7 32.176 47.7333 32.176 47.8238 32.1427C47.8238 32.1427 47.9619 32.1046 48.0095 32.0903C48.0095 32.0903 48.1857 32.0284 48.2714 32.0332C48.2714 32.0332 48.3286 32.0284 48.4 32.0427C48.4 32.0427 48.619 32.0665 48.7667 31.9046C48.7667 31.9046 48.8762 31.8189 48.9143 31.9046C48.9143 31.9046 49.181 32.2617 49.6143 32.1665C49.6143 32.1665 49.2714 32.0237 49.1809 31.8332C49.1809 31.8332 49.1714 31.6713 48.9905 31.4427C48.9905 31.4427 48.9333 31.3665 48.9905 31.3475C48.9905 31.3475 49.019 31.3237 49.0905 31.3903C49.0905 31.3903 49.2619 31.5522 49.3238 31.7046C49.3238 31.7046 49.5381 32.0237 49.8429 31.9189C49.8429 31.9189 49.6048 31.8284 49.4905 31.6522C49.4905 31.6522 49.419 31.4189 49.1857 31.2427C49.1857 31.2427 49.1762 30.9808 49.0667 30.8332C49.0667 30.8332 49.0095 30.5856 48.9952 30.5284C48.9952 30.5284 48.9381 30.3094 48.9381 30.2522C48.9381 30.2522 48.9571 29.9665 48.7762 29.7475C48.7762 29.7475 48.6524 29.5094 48.4619 29.3475C48.4619 29.3475 48.319 29.1665 48.2095 29.057C48.2095 29.057 48.0667 28.8903 47.7571 28.676C47.7571 28.676 47.619 28.576 47.5143 28.4665C47.5143 28.4665 46.9714 28.076 46.5762 28.3903C46.5762 28.3903 46.3048 28.576 46.0762 28.6332C46.0762 28.6332 45.6095 28.6856 45.4095 29.0094C45.4095 29.0094 45.3905 29.0713 45.2048 29.0903C45.2048 29.0903 44.7905 29.0427 44.4857 29.4475C44.4857 29.4475 44.3429 29.5856 44.0667 29.6189C44.0667 29.6189 43.6095 29.5713 43.3143 29.9237C43.3143 29.9237 42.5667 30.576 42.119 30.1522C42.119 30.1522 41.8857 29.9332 42.1524 29.5379C42.1524 29.5379 42.319 29.3332 42.6048 29.1237C42.6048 29.1237 42.8381 28.9617 42.7286 28.7046C42.7286 28.7046 42.6714 28.457 42.3238 28.4522C42.3238 28.4522 41.8857 28.3665 41.7095 28.1475C41.7095 28.1475 41.5143 28.8427 42.2857 28.8332C42.2857 28.8332 42.4857 28.8617 42.419 29.0237C42.419 29.0237 42.319 29.1617 42.1857 29.2094C42.1857 29.2094 41.9524 29.3094 41.8476 29.6522C41.8476 29.6522 41.6095 30.2475 42.1857 30.476C42.4095 30.5522 42.6619 30.5284 42.8905 30.4903" fill="#D20F3E"></path><path fill-rule="evenodd" clip-rule="evenodd" d="M52.9524 29.3522C52.9762 29.3094 52.9667 29.2665 52.9429 29.2237C52.8905 29.1427 52.8381 29.2332 52.8381 29.2332C52.6524 29.4951 52.7905 29.8856 52.7905 29.8856C52.8095 29.5237 52.9571 29.3522 52.9571 29.3522M51.3381 31.0856C51.3381 31.0094 51.3286 30.8379 51.4048 30.776C51.4333 30.7522 51.5476 30.6284 51.5476 30.6284C51.5667 30.5998 51.5762 30.5951 51.5762 30.5951C51.6 30.5951 51.6286 30.6475 51.6286 30.6475C51.7095 30.8046 51.7905 30.7856 51.7905 30.7856C51.7905 30.757 51.7714 30.7236 51.7714 30.7236C51.7476 30.6808 51.6572 30.4951 51.6572 30.4951C51.6476 30.4665 51.6333 30.4332 51.6333 30.4332C51.5571 30.3094 51.481 30.4046 51.481 30.4046C51.4476 30.4713 51.2714 30.6808 51.2714 30.6808C51.2333 30.7284 51.2286 30.776 51.2286 30.776C51.1857 31.0617 51.3333 31.0856 51.3333 31.0856M51.7952 31.8189C51.8286 31.8189 51.8381 31.8046 51.8333 31.7713C51.8095 31.6713 51.7286 31.6237 51.7286 31.6237C51.5762 31.5332 51.5571 31.6237 51.5571 31.6237C51.5286 31.7856 51.6572 31.8094 51.6572 31.8094C51.681 31.8189 51.7952 31.8189 51.7952 31.8189ZM58.4667 32.2951C58.4667 32.2951 58.4333 32.3189 58.4524 32.3665C58.4524 32.3665 58.5381 32.5998 58.5333 32.6808C58.5333 32.6808 58.7238 32.7141 58.7476 32.6189C58.7476 32.6189 58.7524 32.5808 58.7238 32.5284C58.7238 32.5284 58.6905 32.4808 58.6857 32.3903C58.6857 32.3903 58.6857 32.1665 58.5429 32.2237C58.5143 32.2379 58.4905 32.2617 58.4714 32.2903M58.2381 31.9189C58.2048 31.8903 58.1619 31.876 58.1191 31.8856C58.0286 31.9046 58.081 31.9856 58.081 31.9856C58.1191 32.057 58.2381 32.1713 58.2381 32.1713C58.3476 32.2522 58.4333 32.157 58.4333 32.157C58.5143 32.076 58.4095 32.0379 58.4095 32.0379C58.3476 32.0141 58.2381 31.9141 58.2381 31.9141M57.1286 30.5094C57.1286 30.5094 57.1619 30.8427 57.0143 31.1332C57.0143 31.1332 56.9048 31.2903 57.0143 31.3903L57.2429 31.5236C57.2429 31.5236 57.2714 31.5475 57.3762 31.5379C57.3762 31.5379 57.5191 31.5046 57.5667 31.5665C57.5667 31.5665 57.6095 31.6856 57.6572 31.7856C57.6572 31.7856 57.7619 32.0237 57.9333 32.0998C57.9333 32.0998 58.0714 32.1332 58.1143 32.2522C58.1143 32.2522 58.1571 32.3379 58.2476 32.3379C58.2476 32.3379 58.3143 32.357 58.3572 32.5046C58.3572 32.5046 58.381 32.5998 58.381 32.6713C58.381 32.6713 58.2667 32.657 58.1952 32.6856C58.1952 32.6856 58.0143 32.7475 57.9333 32.5951C57.9333 32.5951 57.7762 32.3284 57.6619 32.3665C57.6619 32.3665 57.4286 32.4427 57.2619 32.276C57.2619 32.276 57.0333 32.0284 56.7143 32.0808C56.7143 32.0808 56.3524 32.1522 56.2429 32.0713C56.2429 32.0713 56.0143 31.9522 55.9286 31.9237C55.9286 31.9237 55.8238 31.8951 55.8143 31.7808C55.8143 31.7808 55.7524 31.6189 55.7048 31.5665H55.8762C55.8762 31.5665 56.0333 31.8237 56.2952 31.9046C56.2952 31.9046 56.4381 31.9617 56.7286 31.9141C56.7286 31.9141 57.1429 31.8189 57.5095 32.2141C57.5095 32.2141 57.5571 32.2856 57.6286 32.257C57.6286 32.257 57.4286 31.9141 56.981 31.8284C56.981 31.8284 56.8381 31.7998 56.7143 31.8189C56.7143 31.8189 56.1191 31.8379 55.8381 31.2475C55.8381 31.2475 55.8667 30.7475 55.7381 30.6284C55.7381 30.6284 55.6857 30.6141 55.6952 30.7094C55.6952 30.7094 55.7857 31.2332 55.6143 31.3379C55.6143 31.3379 55.5143 31.4141 55.3333 31.3856C55.3333 31.3856 55.0571 31.3189 54.8286 31.357C54.8286 31.357 54.481 31.4379 54.181 31.3998C54.181 31.3998 54.2572 31.2808 54.2429 31.1379C54.2429 31.1379 54.2 31.0379 54.1524 31.0998C54.1524 31.0998 54.0381 31.4808 53.7238 31.5951C53.7238 31.5951 53.4429 31.6951 53.4476 32.0522C53.4476 32.0522 53.4905 32.0998 53.8619 32.2332C53.8619 32.2332 54 32.276 54.0476 32.1713C54.0476 32.1713 54.2286 31.7856 54.381 31.7998L54.6762 31.8237C54.6762 31.8237 54.7762 31.8475 54.7 31.9284C54.7 31.9284 54.6 32.0617 54.5571 32.1427C54.5571 32.1427 54.5476 32.2094 54.4524 32.1951C54.4524 32.1951 54.3238 32.1284 54.2476 32.3713C54.2476 32.3713 54.181 32.4951 54.0667 32.5332C54.0667 32.5332 53.9571 32.5665 53.8571 32.5141C53.8571 32.5141 53.3714 32.3379 53.2905 32.2713C53.2905 32.2713 53.1857 32.2141 53.1048 32.2427C53.1048 32.2427 52.9619 32.276 52.9 32.1617L52.7476 31.9284C52.7476 31.9284 52.7143 31.8713 52.7191 31.7998C52.7191 31.7998 52.7048 31.7284 52.7667 31.657C52.7667 31.657 52.8238 31.5951 52.8333 31.5522L52.9381 31.2998C52.9381 31.2998 52.981 31.2332 53.0286 31.2046L53.1714 31.2141C53.1714 31.2141 53.0714 31.4665 53 31.5665C53 31.5665 52.9048 31.7141 52.9095 31.8094C52.9095 31.8094 52.9143 31.876 52.9429 31.9046C52.9429 31.9046 52.9762 31.957 52.9905 31.9808C52.9905 31.9808 53.0333 32.076 53.0667 32.0951C53.0667 32.0951 53.1286 32.1332 53.1429 32.1332C53.1429 32.1332 53.1714 32.1427 53.1476 32.0951C53.1476 32.0951 53.0667 31.9284 53.0714 31.8379C53.0714 31.8379 53.0571 31.7427 53.1238 31.6903C53.1238 31.6903 53.281 31.4427 53.3 31.3713C53.3 31.3713 53.3476 31.2713 53.3762 31.257C53.3762 31.257 53.4286 31.1856 53.3429 31.1522C53.3429 31.1522 53.1238 31.1046 53.0857 31.076C53.0857 31.076 52.981 31.0427 52.9143 30.8237C52.9143 30.8237 52.8191 30.5665 52.8238 30.4094C52.8238 30.4094 52.6381 30.7665 52.9333 31.1237C52.9333 31.1237 52.7 31.1903 52.6048 31.1237C52.6048 31.1237 52.3143 31.0808 52.2571 31.0665C52.2571 31.0665 52.1857 31.0475 52.2238 31.0998C52.2238 31.0998 52.3095 31.2237 52.3191 31.3046C52.3191 31.3046 52.3238 31.3713 52.3762 31.4094C52.3762 31.4094 52.5429 31.5237 52.5572 31.6332C52.5572 31.6332 52.5905 31.7379 52.5191 31.7141C52.5191 31.7141 52.4191 31.6665 52.3857 31.7141C52.3857 31.7141 52.3762 31.7141 52.4143 31.7617C52.4143 31.7617 52.5143 31.8475 52.5191 31.9617C52.5191 31.9617 52.5 32.0951 52.4667 32.1379C52.4667 32.1379 52.4238 32.1998 52.3524 32.1808C52.3524 32.1808 52.3333 32.1665 52.3 32.176C52.3 32.176 52.2667 32.176 52.1762 32.1427C52.1762 32.1427 52.0381 32.1046 51.9905 32.0903C51.9905 32.0903 51.8143 32.0284 51.7286 32.0332C51.7286 32.0332 51.6714 32.0284 51.6 32.0427C51.6 32.0427 51.381 32.0665 51.2333 31.9046C51.2333 31.9046 51.1238 31.8189 51.0857 31.9046C51.0857 31.9046 50.8191 32.2617 50.3857 32.1665C50.3857 32.1665 50.7286 32.0237 50.8191 31.8332C50.8191 31.8332 50.8286 31.6713 51.0095 31.4427C51.0095 31.4427 51.0667 31.3665 51.0095 31.3475C51.0095 31.3475 50.981 31.3237 50.9095 31.3903C50.9095 31.3903 50.7381 31.5522 50.6762 31.7046C50.6762 31.7046 50.4619 32.0237 50.1572 31.9189C50.1572 31.9189 50.3952 31.8284 50.5095 31.6522C50.5095 31.6522 50.581 31.4189 50.8143 31.2427C50.8143 31.2427 50.8238 30.9808 50.9333 30.8332C50.9333 30.8332 50.9905 30.5856 51.0048 30.5284C51.0048 30.5284 51.0619 30.3094 51.0619 30.2522C51.0619 30.2522 51.0429 29.9665 51.2238 29.7475C51.2238 29.7475 51.3476 29.5094 51.5381 29.3475C51.5381 29.3475 51.681 29.1665 51.7905 29.057C51.7905 29.057 51.9333 28.8903 52.2429 28.676C52.2429 28.676 52.381 28.576 52.4857 28.4665C52.4857 28.4665 53.0286 28.076 53.4238 28.3903C53.4238 28.3903 53.6952 28.576 53.9238 28.6332C53.9238 28.6332 54.3905 28.6856 54.5905 29.0094C54.5905 29.0094 54.6095 29.0713 54.7952 29.0903C54.7952 29.0903 55.2095 29.0427 55.5143 29.4475C55.5143 29.4475 55.6571 29.5856 55.9333 29.6189C55.9333 29.6189 56.3905 29.5713 56.6857 29.9237C56.6857 29.9237 57.4333 30.576 57.881 30.1522C57.881 30.1522 58.1143 29.9332 57.8476 29.5379C57.8476 29.5379 57.681 29.3332 57.3905 29.1237C57.3905 29.1237 57.1572 28.9617 57.2667 28.7046C57.2667 28.7046 57.3238 28.457 57.6714 28.4522C57.6714 28.4522 58.1095 28.3665 58.2857 28.1475C58.2857 28.1475 58.481 28.8427 57.7095 28.8332C57.7095 28.8332 57.5095 28.8617 57.5762 29.0237C57.5762 29.0237 57.6762 29.1617 57.8095 29.2094C57.8095 29.2094 58.0429 29.3094 58.1476 29.6522C58.1476 29.6522 58.3857 30.2475 57.8095 30.476C57.5857 30.5522 57.3333 30.5284 57.1048 30.4903" fill="#D20F3E"></path><path d="M30.7095 11.3384L31.1143 12.0717L28.9 13.2955L29.2476 13.9289L31.2143 12.8431L31.6143 13.5717L29.6476 14.6574L30.1333 15.5336L29.2714 16.0098L27.6333 13.0431L30.7095 11.3431V11.3384Z" fill="white"></path><path d="M36.3 12.6237L35.7619 12.1523L33.8286 12.938L33.7714 13.6523L32.7905 14.0523L33.1333 10.2571L34.3905 9.74756L37.281 12.2285L36.3048 12.6237H36.3ZM33.8952 12.1142L35.1333 11.6095L34.0143 10.6333L33.8952 12.1142Z" fill="white"></path><path d="M41.3476 10.1764L40.7619 7.81927L41.7095 7.58594L42.5238 10.8764L41.1286 11.224L38.6048 9.34784L39.1905 11.705L38.2381 11.9431L37.4238 8.6526L38.8238 8.30499L41.3476 10.1812V10.1764Z" fill="white"></path><path d="M46.119 6.96208L50.2 6.79541L50.2333 7.62874L48.6857 7.69065L48.7905 10.243L47.8095 10.2811L47.7048 7.72874L46.1524 7.79065L46.119 6.95731V6.96208Z" fill="white"></path><path d="M51.3905 8.49526C51.4857 7.37622 52.3143 6.78098 53.7381 6.90479C55.1571 7.0286 55.8762 7.75717 55.7809 8.87145C55.6857 9.9905 54.8524 10.5953 53.4333 10.4715C52.0095 10.3476 51.2952 9.61907 51.3905 8.49526ZM54.7571 8.78574C54.8095 8.20003 54.5048 7.80955 53.6667 7.73812C52.8333 7.66669 52.4667 7.9905 52.419 8.58574C52.3667 9.18098 52.6762 9.57145 53.5048 9.64288C54.3381 9.71431 54.7095 9.38098 54.7619 8.7905L54.7571 8.78574Z" fill="white"></path><path d="M61.6238 8.36681L59.6333 9.38109L60.881 11.6763L59.6762 11.4049L58.8095 9.8049L57.8619 10.2859L57.7095 10.9573L56.7524 10.7382L57.5 7.42871L58.4619 7.643L58.1286 9.12871L60.1952 8.03823L61.6333 8.36204L61.6238 8.36681Z" fill="white"></path><path d="M66.3286 9.99553L66.0667 10.7193L63.6857 9.85744L63.5 10.367L65.7905 11.1955L65.5286 11.9193L63.2381 11.0908L63.0524 11.6003L65.4333 12.4622L65.1714 13.186L61.8667 11.9908L63.019 8.80029L66.3238 9.99553H66.3286Z" fill="white"></path><path d="M69.7619 14.3526L70.8762 12.1907L71.7476 12.6383L70.1905 15.6526L68.9095 14.9907L68.2476 11.9097L67.1333 14.0716L66.2571 13.6193L67.8143 10.605L69.1 11.2669L69.7619 14.3478V14.3526Z" fill="white"></path><path d="M27.3952 85.4763C27.2476 85.7192 27.3952 86.0239 28.1571 86.4858C28.8571 86.9049 29.0952 86.9001 29.2048 86.7192C29.3333 86.5097 29.2238 86.3906 28.3952 85.8144C27.2667 85.024 26.8905 84.4763 27.2762 83.8335C27.6429 83.2287 28.4619 83.3478 29.4667 83.9525C30.5857 84.6239 31.0238 85.3525 30.6619 86.0144L29.7809 85.4859C29.9333 85.2287 29.7143 84.962 29.0619 84.5716C28.4429 84.2001 28.2429 84.2192 28.1476 84.3763C28.0381 84.5573 28.1476 84.6954 28.8952 85.2335C29.9143 85.9573 30.5619 86.4478 30.1048 87.2097C29.6571 87.9525 28.8381 87.7573 27.8048 87.1335C26.6286 86.4239 26.0905 85.7382 26.5095 84.9478L27.3905 85.4811L27.3952 85.4763Z" fill="white"></path><path d="M31.5238 87.1909C31.9714 86.1576 32.9429 85.8623 34.2571 86.429C35.5667 86.9957 36.0143 87.9147 35.5714 88.9433C35.1238 89.9766 34.1429 90.2814 32.8333 89.7147C31.519 89.148 31.0762 88.229 31.5238 87.1909ZM34.6286 88.5385C34.8619 87.9957 34.6952 87.5338 33.9238 87.1957C33.1571 86.8623 32.7048 87.0576 32.4714 87.6004C32.2333 88.1481 32.4048 88.6147 33.1667 88.948C33.9333 89.2814 34.3952 89.0814 34.6286 88.5338V88.5385Z" fill="white"></path><path d="M39.3048 88.2194C40.5048 88.5575 41.0428 89.2623 40.9048 90.129L39.9 89.848C39.919 89.529 39.6857 89.1909 39.0809 89.0242C38.3809 88.829 37.9476 89.0766 37.7857 89.648C37.6238 90.2242 37.8714 90.6671 38.5667 90.8623C39.1714 91.029 39.5476 90.8623 39.6952 90.5718L40.7 90.8528C40.3667 91.6718 39.5428 92.0004 38.3381 91.6671C37.0286 91.3004 36.4809 90.4909 36.7905 89.3718C37.1048 88.2575 37.9905 87.8528 39.3 88.2194H39.3048Z" fill="white"></path><path d="M43.3952 89.2289L42.7952 92.5623L41.8286 92.3861L42.4286 89.0527L43.3952 89.2289Z" fill="white"></path><path d="M44.419 91.1481C44.5095 90.029 45.3333 89.4338 46.7571 89.5481C48.1762 89.6624 48.9 90.3909 48.8048 91.5052C48.7143 92.6243 47.8857 93.229 46.4619 93.1147C45.0381 93.0005 44.319 92.2719 44.4143 91.1481H44.419ZM47.7857 91.4243C47.8333 90.8386 47.5286 90.4528 46.6905 90.3814C45.8571 90.3148 45.4952 90.6433 45.4428 91.2338C45.3952 91.829 45.7048 92.2148 46.5333 92.2862C47.3667 92.3528 47.7381 92.0195 47.7857 91.4243Z" fill="white"></path><path d="M51.119 92.048C51.1333 92.3337 51.4238 92.5051 52.3143 92.4575C53.1286 92.4146 53.3238 92.2766 53.3095 92.0623C53.2952 91.8146 53.1429 91.7813 52.1333 91.767C50.7571 91.7432 50.1333 91.5004 50.0952 90.748C50.0571 90.0432 50.8048 89.6813 51.9762 89.6242C53.2809 89.5575 54.0524 89.9099 54.119 90.6623L53.0952 90.7146C53.0809 90.4146 52.7476 90.3194 51.9857 90.3575C51.2667 90.3956 51.1095 90.5242 51.119 90.7051C51.1286 90.9146 51.2952 90.9718 52.219 91.0004C53.4667 91.0289 54.2809 91.0718 54.3286 91.9623C54.3714 92.8289 53.5857 93.1242 52.3809 93.1861C51.0095 93.2575 50.1762 92.9861 50.0857 92.0956L51.1143 92.0432L51.119 92.048Z" fill="white"></path><path d="M55.7429 92.0429L56.681 91.9048L56.7857 92.6334L55.8476 92.7715L55.7381 92.0429H55.7429Z" fill="white"></path><path d="M59.481 88.5382C60.6952 88.243 61.5095 88.5953 61.8143 89.4191L60.8 89.6668C60.6619 89.3763 60.2905 89.2001 59.6809 89.3477C58.9762 89.5192 58.719 89.9477 58.8571 90.5287C59 91.1096 59.4333 91.3763 60.1333 91.2049C60.7429 91.0572 60.9905 90.7239 60.9762 90.3953L61.9905 90.1477C62.1 91.0239 61.5429 91.7191 60.3286 92.0144C59.0048 92.3382 58.1286 91.9001 57.8524 90.7715C57.5762 89.6477 58.1524 88.862 59.4762 88.5382H59.481Z" fill="white"></path><path d="M63.1524 89.3956C62.7381 88.348 63.219 87.448 64.5476 86.9242C65.8714 86.4003 66.8429 86.7337 67.2524 87.7765C67.6667 88.8242 67.1857 89.7337 65.8619 90.2575C64.5333 90.7813 63.5667 90.448 63.1524 89.3956ZM66.3 88.1527C66.0857 87.6051 65.6381 87.3908 64.8571 87.7003C64.081 88.0051 63.8952 88.4622 64.1143 89.0146C64.3333 89.5718 64.7857 89.7813 65.5571 89.4765C66.3333 89.1718 66.519 88.7051 66.3 88.1527Z" fill="white"></path><path d="M69.3381 88.6907L67.6333 85.7574L68.9571 84.986L71.1095 86.3383L70.9952 83.8002L72.319 83.0288L74.0238 85.9621L73.1762 86.4526L71.9429 84.3288L72.0762 87.0955L71.2905 87.5526L68.9524 86.0717L70.1905 88.1955L69.3381 88.6907Z" fill="white"></path><path d="M23.019 81.8382C13.9952 74.1811 8.26666 62.7573 8.26666 50.0001C8.26666 37.243 14.3 25.2144 23.7381 17.562" stroke="white" stroke-miterlimit="10"></path><path d="M76.2667 17.5669C85.7048 25.2193 91.7333 36.905 91.7333 50.0002C91.7333 63.0955 86.0048 74.1859 76.9809 81.8431" stroke="white" stroke-miterlimit="10"></path></g><defs><clipPath id="clip0_101_22096"><rect width="100" height="100" fill="white"></rect></clipPath></defs></svg>