<svg xmlns="http://www.w3.org/2000/svg" width="100" height="100" viewBox="0 0 100 100" fill="none"><g clip-path="url(#clip0_101_22059)"><path d="M50 100C77.6142 100 100 77.6142 100 50C100 22.3858 77.6142 0 50 0C22.3858 0 0 22.3858 0 50C0 77.6142 22.3858 100 50 100Z" fill="#005596"></path><path d="M49.9999 98.7142C76.9041 98.7142 98.7142 76.9041 98.7142 49.9999C98.7142 23.0958 76.9041 1.28564 49.9999 1.28564C23.0958 1.28564 1.28564 23.0958 1.28564 49.9999C1.28564 76.9041 23.0958 98.7142 49.9999 98.7142Z" fill="#005596"></path><path d="M50 2.52381C76.1905 2.52381 97.4762 23.8095 97.4762 50C97.4762 76.1905 76.1905 97.4762 50 97.4762C23.8095 97.4762 2.52381 76.1905 2.52381 50C2.52381 23.8095 23.8095 2.52381 50 2.52381ZM50 0C22.381 0 0 22.381 0 50C0 77.619 22.381 100 50 100C77.619 100 100 77.619 100 50C100 22.381 77.619 0 50 0Z" fill="#005596"></path><path d="M50 100C77.6142 100 100 77.6142 100 50C100 22.3858 77.6142 0 50 0C22.3858 0 0 22.3858 0 50C0 77.6142 22.3858 100 50 100Z" fill="#00352F"></path><path d="M50 2.52381C76.1905 2.52381 97.4762 23.8095 97.4762 50C97.4762 76.1905 76.1905 97.4762 50 97.4762C23.8095 97.4762 2.52381 76.1905 2.52381 50C2.52381 23.8095 23.8095 2.52381 50 2.52381ZM50 0C22.381 0 0 22.381 0 50C0 77.619 22.381 100 50 100C77.619 100 100 77.619 100 50C100 22.381 77.619 0 50 0Z" fill="#001613"></path><path d="M30.7144 11.333L31.0953 12.0473L28.8572 13.2854L29.1906 13.9044L31.143 12.8092L31.5239 13.5235L29.5715 14.6187L30.0477 15.4759L29.1906 15.9521L27.6191 13.0473L30.7144 11.333Z" fill="white"></path><path d="M36.286 12.6186L35.7622 12.1424L33.8098 12.952L33.7622 13.6662L32.7622 14.0472L33.0955 10.2377L34.3336 9.71387L37.2384 12.1901L36.286 12.6186ZM33.9051 12.0948L35.1432 11.571L34.0479 10.6186C34.0003 10.6186 33.9051 12.0948 33.9051 12.0948Z" fill="white"></path><path d="M41.3335 10.1901L40.762 7.85675L41.7144 7.61865L42.524 10.9044L41.143 11.2377L38.6192 9.38056L39.1906 11.7615L38.2382 11.9996L37.4287 8.71389L38.8097 8.38056L41.3335 10.1901Z" fill="white"></path><path d="M46.0952 6.9522L50.1905 6.76172L50.2381 7.61886L48.7143 7.66648L48.8095 10.2379L47.8095 10.2855L47.7143 7.7141L46.1428 7.76172L46.0952 6.9522Z" fill="white"></path><path d="M51.381 8.47581C51.4762 7.33296 52.2857 6.76153 53.7143 6.90439C55.1429 7.04724 55.8572 7.76153 55.7619 8.85677C55.6667 9.99962 54.8572 10.5711 53.4286 10.4758C52 10.333 51.2857 9.61867 51.381 8.47581ZM54.7619 8.80915C54.8096 8.23772 54.5238 7.85677 53.6667 7.76153C52.8096 7.71391 52.4762 7.99962 52.4286 8.61867C52.381 9.1901 52.6667 9.61867 53.5238 9.66629C54.3334 9.71391 54.7143 9.38058 54.7619 8.80915Z" fill="white"></path><path d="M61.6193 8.38086L59.6193 9.38086L60.8574 11.6666L59.667 11.3809L58.8098 9.76181L57.8574 10.238L57.7146 10.9047L56.7622 10.6666L57.5241 7.38086L58.4765 7.57134L58.1432 9.04753L60.1908 7.95229L61.6193 8.38086Z" fill="white"></path><path d="M66.3334 10L66.0477 10.7143L63.6667 9.85719L63.4762 10.381L65.762 11.1905L65.4762 11.9048L63.1905 11.0953L63 11.6191L65.381 12.4762L65.0953 13.1905L61.8096 12L62.9524 8.80957L66.3334 10Z" fill="white"></path><path d="M69.7621 14.333L70.8573 12.1901L71.7145 12.6187L70.143 15.6187L68.8573 14.952L68.1907 11.8568L67.0954 13.9996L66.2383 13.5234L67.8097 10.5234L69.0954 11.1901L69.7621 14.333Z" fill="white"></path><path d="M27.3809 85.4762C27.2381 85.7142 27.3809 86 28.1428 86.4762C28.8571 86.9047 29.0952 86.9047 29.1905 86.7142C29.3333 86.5238 29.1905 86.3809 28.3809 85.8095C27.2381 85 26.8571 84.4762 27.2857 83.8095C27.6667 83.1904 28.4762 83.3333 29.4762 83.9047C30.5714 84.5714 31.0476 85.2857 30.6667 85.9523L29.8095 85.4285C29.9524 85.1904 29.7619 84.9047 29.0952 84.5238C28.4762 84.1428 28.2857 84.1904 28.1905 84.3333C28.0952 84.5238 28.1905 84.6666 28.9524 85.1904C29.9524 85.9047 30.619 86.4285 30.1428 87.1428C29.7143 87.9047 28.8571 87.6666 27.8571 87.0476C26.6667 86.3333 26.1428 85.6666 26.5714 84.8571L27.3809 85.4762Z" fill="white"></path><path d="M31.524 87.1904C31.9526 86.1428 32.9526 85.8571 34.2383 86.4285C35.5716 86.9999 36.0002 87.9047 35.5716 88.9523C35.143 89.9999 34.143 90.2856 32.8097 89.7142C31.524 89.1428 31.0954 88.238 31.524 87.1904ZM34.6192 88.5237C34.8573 87.9999 34.6669 87.5237 33.9049 87.1904C33.143 86.8571 32.6669 87.0476 32.4288 87.619C32.1907 88.1428 32.3811 88.619 33.143 88.9523C33.9526 89.2856 34.3811 89.0952 34.6192 88.5237Z" fill="white"></path><path d="M39.2857 88.2383C40.4762 88.5716 41.0476 89.2859 40.9047 90.1431L39.9047 89.8574C39.9047 89.524 39.7142 89.1907 39.0952 89.0478C38.3809 88.8574 37.9523 89.0955 37.8095 89.6669C37.6666 90.2383 37.9047 90.6669 38.5714 90.905C39.1904 91.0955 39.5714 90.905 39.7143 90.6193L40.7143 90.905C40.3809 91.7145 39.5714 92.0478 38.3333 91.7145C37 91.3336 36.4762 90.524 36.8095 89.4288C37.0952 88.2383 38 87.8574 39.2857 88.2383Z" fill="white"></path><path d="M43.381 89.2383L42.762 92.5717L41.8096 92.3812L42.4286 89.0479L43.381 89.2383Z" fill="white"></path><path d="M44.4283 91.143C44.5236 90.0001 45.3331 89.4287 46.7617 89.5239C48.1902 89.6191 48.9045 90.3811 48.8093 91.4763C48.7141 92.6192 47.9045 93.1906 46.476 93.0953C45.0474 93.0001 44.3331 92.2858 44.4283 91.143ZM47.7617 91.4287C47.8093 90.8572 47.5236 90.4763 46.6664 90.3811C45.8093 90.3334 45.476 90.6668 45.4283 91.2382C45.3807 91.8096 45.7141 92.2382 46.5236 92.2858C47.3807 92.3334 47.7141 92.0001 47.7617 91.4287Z" fill="white"></path><path d="M51.0952 92.0475C51.0952 92.3332 51.381 92.5237 52.2857 92.4761C53.0952 92.4285 53.2857 92.2856 53.2857 92.0951C53.2857 91.857 53.1429 91.8094 52.0952 91.8094C50.7143 91.7618 50.0952 91.5237 50.0476 90.8094C50 90.0951 50.7619 89.7618 51.9048 89.6666C53.1905 89.6189 54 89.9523 54.0476 90.7142L53 90.7618C53 90.4761 52.6667 90.3808 51.9048 90.3808C51.1905 90.4285 51.0476 90.5713 51.0476 90.7142C51.0476 90.9047 51.2381 90.9999 52.1429 90.9999C53.381 91.0475 54.1905 91.0475 54.2381 91.9523C54.2857 92.8094 53.4762 93.0951 52.2857 93.1904C50.9048 93.238 50.0952 92.9999 50 92.0951L51.0952 92.0475Z" fill="white"></path><path d="M55.7617 92.0476L56.7141 91.9048L56.8093 92.6191L55.857 92.7619L55.7617 92.0476Z" fill="white"></path><path d="M59.476 88.5239C60.7141 88.2382 61.5236 88.5716 61.8093 89.4287L60.8093 89.6668C60.6664 89.3811 60.2855 89.1906 59.7141 89.3335C58.9998 89.5239 58.7617 89.9525 58.9045 90.5239C59.0474 91.0954 59.476 91.3811 60.1903 91.1906C60.8093 91.0477 61.0474 90.7144 61.0474 90.3811L62.0474 90.143C62.1426 91.0001 61.6188 91.7144 60.3807 92.0001C59.0474 92.3335 58.1903 91.9049 57.9045 90.762C57.5712 89.6668 58.1426 88.8573 59.476 88.5239Z" fill="white"></path><path d="M63.1426 89.3812C62.7141 88.3335 63.1903 87.4288 64.5236 86.905C65.8569 86.3812 66.8093 86.7145 67.2379 87.7621C67.6664 88.8097 67.1903 89.7145 65.8569 90.2383C64.5236 90.7621 63.5712 90.4288 63.1426 89.3812ZM66.2855 88.1431C66.095 87.6193 65.6188 87.3812 64.8569 87.7145C64.095 88.0002 63.9045 88.4764 64.095 89.0478C64.3331 89.6192 64.7617 89.8097 65.5236 89.524C66.3331 89.1907 66.5236 88.7145 66.2855 88.1431Z" fill="white"></path><path d="M69.3334 88.6667L67.6191 85.7143L68.9525 84.9524L71.0953 86.2857L71.0001 83.7619L72.3334 83L74.0477 85.9524L73.1906 86.4286L71.9525 84.2857L72.0953 87.0476L71.3334 87.5238L69.0001 86.0476L70.2382 88.1905L69.3334 88.6667Z" fill="white"></path><path d="M22.6667 82.2378C13.1905 74.1902 7.71436 62.4283 7.71436 49.9997C7.71436 37.3807 13.5715 25.095 23.381 17.1426L24.0477 17.9521C14.5239 25.714 8.80959 37.714 8.80959 49.9997C8.80959 62.1426 14.0953 73.5711 23.381 81.4283L22.6667 82.2378Z" fill="#CAD800"></path><path d="M77.3336 82.2381L76.6669 81.4285C86.0479 73.4761 91.2384 62.2857 91.2384 50C91.2384 37.5238 85.6669 25.8571 75.9526 18L76.6193 17.1904C86.5717 25.238 92.286 37.238 92.286 50.0476C92.286 62.619 86.9526 74.0952 77.3336 82.2381Z" fill="#CAD800"></path><path d="M50.0955 41.1426C43.7622 41.1426 34.0003 41.1902 25.7622 41.3331V41.3807C34.0003 41.5711 44.1908 41.6188 50.5241 41.6188C52.8574 41.6188 64.667 41.6188 74.2384 41.3807V41.3331C67.6193 41.1902 59.0479 41.1426 50.0955 41.1426Z" fill="white"></path><path d="M46.6669 56.8569H46.4288L45.0479 59.9998H45.5717C45.6193 59.8093 45.6669 59.6188 45.8574 59.1426H47.0002C47.1431 59.476 47.2383 59.7617 47.3336 59.9998H48.0002L46.6669 56.8569ZM46.4288 57.7617C46.7621 58.5236 46.7621 58.5236 46.8574 58.7617H46.0002C46.0955 58.5236 46.0955 58.5236 46.4288 57.7617Z" fill="white"></path><path d="M67.8573 56.8569H67.6192L66.2383 59.9998H66.7621C66.8097 59.8093 66.8573 59.6188 67.0478 59.1426H68.1907C68.3335 59.476 68.4288 59.7617 68.524 59.9998H69.1907L67.8573 56.8569ZM67.6192 57.7617C67.9526 58.5236 67.9526 58.5236 68.0478 58.7617H67.1907C67.3335 58.5236 67.3335 58.5236 67.6192 57.7617Z" fill="white"></path><path d="M38.6667 59.9998C38.5715 59.0474 38.5239 58.4284 38.4763 58.0474C37.9525 58.9998 37.7144 59.4284 37.5239 59.9522H37.3334C36.8096 58.8569 36.762 58.7617 36.6191 58.5236C36.5715 58.4284 36.5239 58.3331 36.381 58.0474C36.3334 58.2379 36.2858 59.095 36.1905 59.9522H35.7144C35.8572 58.8569 36.0953 56.9998 36.0953 56.9046H36.381C36.4286 56.9998 36.4763 57.095 36.5239 57.1426C36.8572 57.8569 37.1429 58.3807 37.4763 58.9522C37.6191 58.6665 37.762 58.4284 37.9048 58.1426C38.0953 57.7617 38.3334 57.3331 38.6191 56.8569H38.8572C38.8572 56.9522 39.0477 58.476 39.2382 59.9046C39.2858 59.9998 38.6667 59.9998 38.6667 59.9998Z" fill="white"></path><path d="M72.3337 59.9998C72.2385 59.0474 72.1909 58.4284 72.1433 58.0474C71.6194 58.9998 71.3813 59.4284 71.1909 59.9522H71.0004C70.4766 58.8569 70.429 58.7617 70.2861 58.5236C70.2385 58.4284 70.1909 58.3331 70.048 58.0474C70.0004 58.2379 69.9528 59.095 69.8575 59.9522H69.3813C69.5242 58.8569 69.7623 56.9998 69.8099 56.9046H70.0956C70.1433 56.9998 70.1909 57.095 70.2385 57.1426C70.5718 57.8569 70.8575 58.3807 71.1909 58.9522C71.3337 58.6665 71.4766 58.4284 71.6194 58.1426C71.8099 57.7617 72.048 57.3331 72.3337 56.8569H72.5718C72.5718 56.9522 72.7623 58.476 72.9528 59.9046C72.9528 59.9998 72.3337 59.9998 72.3337 59.9998Z" fill="white"></path><path d="M30.8576 60.095C30.2385 60.095 29.8576 59.7617 29.7623 59.6665C29.5242 59.4284 29.2861 59.0474 29.2861 58.476C29.2861 57.9046 29.5242 57.5236 29.7623 57.2855C29.8576 57.1903 30.2385 56.8569 30.8576 56.8569C31.2385 56.8569 32.0004 56.9998 32.3338 57.8093C32.429 57.9998 32.4766 58.2379 32.4766 58.5236C32.4766 59.095 32.2385 59.476 32.0004 59.7141C31.8576 59.7617 31.5242 60.095 30.8576 60.095ZM30.8576 59.7141C31.3338 59.7141 31.8099 59.2855 31.8099 58.4284C31.8099 57.5712 31.3338 57.1426 30.8576 57.1426C30.3814 57.1426 29.9052 57.5712 29.9052 58.4284C29.9052 59.2855 30.3814 59.7141 30.8576 59.7141Z" fill="white"></path><path d="M51.0954 60.095C50.4763 60.095 50.0954 59.7617 50.0001 59.6665C49.7144 59.4284 49.5239 59.0474 49.5239 58.476C49.5239 57.9046 49.762 57.5236 50.0001 57.2855C50.0954 57.1903 50.4763 56.8569 51.0954 56.8569C51.4763 56.8569 52.2382 56.9998 52.5715 57.8093C52.6668 57.9998 52.7144 58.2379 52.7144 58.5236C52.7144 59.095 52.4763 59.476 52.2382 59.7141C52.0954 59.7617 51.7144 60.095 51.0954 60.095ZM51.0954 59.7141C51.5715 59.7141 52.0477 59.2855 52.0477 58.4284C52.0477 57.5712 51.5715 57.1426 51.0954 57.1426C50.6192 57.1426 50.143 57.5712 50.143 58.4284C50.143 59.2855 50.6192 59.7141 51.0954 59.7141Z" fill="white"></path><path d="M33.0003 56.9048C33.1431 56.9048 33.8574 56.9048 33.8574 56.9048C34.3812 56.9048 34.5717 57 34.7622 57.1905C34.905 57.3334 35.0003 57.5715 35.0003 57.8095C35.0003 58 34.905 58.2381 34.7622 58.381C34.6193 58.5238 34.3812 58.6191 34.3336 58.6667L35.4764 60H34.7622L33.7145 58.7143H33.5241V60H32.9526L33.0003 56.9048ZM33.8098 57.2381C33.7145 57.2381 33.6669 57.2381 33.5717 57.2381V58.3334C33.6669 58.3334 33.7145 58.381 33.8098 58.381C34.286 58.381 34.4764 58.0953 34.4764 57.8095C34.4764 57.7619 34.4764 57.5715 34.3336 57.4286C34.1907 57.2857 34.0003 57.2381 33.8098 57.2381Z" fill="white"></path><path d="M43.0957 59.9998V56.9521H43.6671V59.5712H44.9052V59.9998H43.0957Z" fill="white"></path><path d="M58.9051 57.0474H58.667V56.9521H59.286V57.0474H59.0479V57.7141H58.9051V57.0474Z" fill="white"></path><path d="M60.0956 57.3807C60.0956 57.2855 60.0956 57.1426 60.0956 57.0474C60.048 57.1426 60.048 57.2379 60.0004 57.3331L59.9051 57.6665H59.8099L59.7147 57.3331C59.667 57.2379 59.667 57.1426 59.6194 56.9998C59.6194 57.095 59.6194 57.2379 59.6194 57.3331V57.6665H59.4766L59.5242 56.8569H59.7147L59.8099 57.1903C59.8575 57.2855 59.8575 57.3807 59.9051 57.476C59.9528 57.3807 59.9528 57.2855 60.0004 57.1903L60.0956 56.8569H60.2861L60.3337 57.6665H60.1908L60.0956 57.3807Z" fill="white"></path><path d="M55.5716 59.9998C55.4288 59.8569 54.524 58.8569 53.6668 57.8569V59.9998H53.2383V56.9521H53.5716L55.4288 58.9998V56.9521H55.8573V59.9998H55.5716Z" fill="white"></path><path d="M62.2859 60V57.3334C61.8097 57.3334 61.524 57.381 61.3335 57.381V56.9048H63.8097V57.381C63.6668 57.381 63.3811 57.3334 62.9049 57.3334V60H62.2859Z" fill="white"></path><path d="M57.0954 59.5715V58.5715H58.1906V58.1905H57.0954V57.2857C57.3335 57.2857 57.7144 57.2857 58.3335 57.3334V56.9048H56.5239V59.9524H58.3811V59.5238C58.0001 59.5715 57.5239 59.5715 57.0954 59.5715Z" fill="white"></path><path d="M64.7145 59.5715V58.5715H65.8097V58.1905H64.7145V57.2857C64.9526 57.2857 65.3335 57.2857 65.9526 57.3334V56.9048H64.1431V59.9524H66.0002V59.5238C65.6193 59.5715 65.1431 59.5715 64.7145 59.5715Z" fill="white"></path><path d="M41.9051 56.9524C41.9051 58.1429 41.9051 58.5715 41.9051 58.5715C41.9051 58.9524 41.8574 59.6191 41.1432 59.6191C40.8574 59.6191 40.3336 59.5715 40.3336 58.7143C40.3336 57.9048 40.3336 56.9524 40.3336 56.9048H39.7622C39.7622 56.9524 39.7622 57.8572 39.7622 58.7143C39.7622 59.9524 40.7622 60.0476 41.0479 60.0476C41.7622 60.0476 42.3336 59.7143 42.3336 58.7143V56.9524H41.9051Z" fill="white"></path><path d="M28.905 57.3807V56.9521H27.0479V59.9998H27.6193V58.6664H28.7621V58.2855H27.6193V57.3331C28.1907 57.3331 28.524 57.3331 28.905 57.3807Z" fill="white"></path><path d="M74.0479 44.8095C74.0479 45.1428 73.7621 45.4285 73.4288 45.4285C73.0955 45.4285 72.8098 45.1428 72.8098 44.8095C72.8098 44.4761 73.0955 44.1904 73.4288 44.1904C73.7621 44.1904 74.0479 44.4761 74.0479 44.8095ZM74.0002 44.8095C74.0002 44.5238 73.7621 44.2857 73.4764 44.2857C73.1907 44.2857 72.9526 44.5238 72.9526 44.8095C72.9526 45.0952 73.1907 45.3333 73.4764 45.3333C73.7621 45.3333 74.0002 45.0952 74.0002 44.8095ZM73.5717 44.8571L73.7621 45.1428H73.6193L73.4764 44.8571H73.3812V45.1428H73.2859V44.4761H73.524C73.6193 44.4761 73.7145 44.5714 73.7145 44.6666C73.7145 44.7619 73.6669 44.8571 73.5717 44.8571ZM73.3812 44.7619H73.524C73.5717 44.7619 73.6193 44.7142 73.6193 44.6666C73.6193 44.619 73.5717 44.5714 73.524 44.5714H73.3812V44.7619ZM51.524 46.1428H52.4288V51.5714H51.524V46.1428ZM48.1907 46.0476C47.5717 46.0476 47.0479 46.238 46.6193 46.619V46.1904H45.7145V51.619H46.6193V48.5714C46.6193 47.7142 47.3336 47 48.1907 47C49.0478 47 49.7621 47.7142 49.7621 48.5714V51.619H50.6669V48.5714C50.6669 47.1428 49.5717 46.0476 48.1907 46.0476ZM43.905 46.1428H44.8098V51.3809C44.8098 52.9523 43.4288 54.1904 42.0002 54.1904C40.6669 54.1904 39.6669 53.3809 39.2859 52.238H40.2383C40.524 52.8571 41.1431 53.2857 41.9526 53.2857C42.905 53.2857 43.905 52.4285 43.905 51.3333V50.9523C43.3812 51.4285 42.7145 51.7142 41.9526 51.7142C40.3812 51.7142 39.1431 50.4285 39.1431 48.9047C39.1431 47.3809 40.4288 46.0952 41.9526 46.0952C42.7145 46.0952 43.3812 46.3809 43.905 46.8571V46.1428ZM43.905 48.8571C43.905 47.8095 43.0479 46.9047 41.9526 46.9047C40.8574 46.9047 40.0002 47.7619 40.0002 48.8571C40.0002 49.9523 40.8574 50.8095 41.9526 50.8095C43.0479 50.8095 43.905 49.9523 43.905 48.8571ZM29.905 46.9523C30.6669 46.9523 31.3336 47.4285 31.6669 48.0476H32.6193C32.2859 46.9047 31.1907 46.0476 29.905 46.0476C28.3336 46.0476 27.0479 47.3333 27.0479 48.8571C27.0479 50.3809 28.3336 51.6666 29.905 51.6666C31.1907 51.6666 32.2859 50.8095 32.6193 49.6666H31.6669C31.3336 50.3333 30.6669 50.7619 29.905 50.7619C28.8574 50.7619 28.0002 49.9047 28.0002 48.8095C28.0002 47.7142 28.8574 46.9523 29.905 46.9523ZM38.7145 48.8571C38.7145 50.4285 37.4288 51.6666 35.905 51.6666C34.3812 51.6666 33.0955 50.3809 33.0955 48.8571C33.0955 47.3333 34.3812 46.0476 35.905 46.0476C37.4288 46.0476 38.7145 47.2857 38.7145 48.8571ZM37.8098 48.8571C37.8098 47.8095 36.9526 46.9047 35.8574 46.9047C34.7621 46.9047 33.905 47.7619 33.905 48.8571C33.905 49.9523 34.7621 50.8095 35.8574 50.8095C36.9526 50.8095 37.8098 49.9523 37.8098 48.8571ZM67.3812 46.0476C66.7621 46.0476 66.2383 46.238 65.8098 46.619V46.1904H64.905V51.619H65.8098V48.5714C65.8098 47.7142 66.524 47 67.3812 47C68.2383 47 68.9526 47.7142 68.9526 48.5714V51.619H69.8574V48.5714C69.8574 47.1428 68.7621 46.0476 67.3812 46.0476ZM63.0955 46.1428H64.0002V51.5714H63.0955V50.9523C62.5717 51.4285 61.905 51.7142 61.1431 51.7142C59.5717 51.7142 58.3336 50.4285 58.3336 48.9047C58.3336 47.3809 59.6193 46.0952 61.1431 46.0952C61.905 46.0952 62.5717 46.3809 63.0955 46.8571V46.1428ZM63.0955 48.8571C63.0955 47.8095 62.2383 46.9047 61.1431 46.9047C60.0478 46.9047 59.1907 47.7619 59.1907 48.8571C59.1907 49.9523 60.0478 50.8095 61.1431 50.8095C62.2383 50.8095 63.0955 49.9523 63.0955 48.8571ZM72.905 47.0476V46.1428H71.524V44.6666H70.6193V49.7619C70.6193 50.7619 71.4288 51.5714 72.4288 51.5714H72.8574V50.6666H72.4288C71.905 50.6666 71.524 50.2857 71.524 49.7619V47.0476H72.905ZM51.9526 44.1904C51.6193 44.1904 51.3336 44.4761 51.3336 44.8095C51.3336 45.1428 51.6193 45.4285 51.9526 45.4285C52.2859 45.4285 52.5717 45.1428 52.5717 44.8095C52.5717 44.4761 52.2859 44.1904 51.9526 44.1904ZM57.8574 46.1428H53.3336V47.0476H56.6669L53.3336 50.6666V51.5714H57.8574V50.6666H54.524L57.8574 47.0476V46.1428Z" fill="white"></path><path d="M69.2863 65.1426C67.2387 65.1426 65.6196 66.8092 65.6196 68.8092C65.6196 70.8092 67.2863 72.4759 69.2863 72.4759C71.2863 72.4759 72.953 70.8092 72.953 68.8092C72.953 66.8092 71.3339 65.1426 69.2863 65.1426ZM69.2863 70.8569C68.1434 70.8569 67.2863 69.9521 67.2863 68.8569C67.2863 67.7616 68.1911 66.8569 69.2863 66.8569C70.3815 66.8569 71.2863 67.7616 71.2863 68.8569C71.2863 69.9521 70.3815 70.8569 69.2863 70.8569Z" fill="white"></path><path d="M55.8101 65.0474C55.0006 65.0474 54.1911 65.2378 53.5244 65.4759C53.0006 65.1902 52.4768 65.0474 51.7149 65.0474C50.7625 65.0474 49.8101 65.1902 48.8101 65.5236L48.6196 65.5712V72.3807H50.4768V66.8093C50.8577 66.6664 51.1434 66.6188 51.5244 66.6188C52.4292 66.6188 52.7149 66.9045 52.7149 67.8569V72.3331H54.572V67.714C54.572 67.2855 54.572 67.0474 54.4768 66.7616C54.8577 66.6188 55.1434 66.5712 55.4768 66.5712C56.3339 66.5712 56.7625 66.9521 56.7625 67.8093V72.2855H58.6196V67.6664C58.6196 66.7616 58.4768 66.2378 58.0482 65.7616C57.5244 65.3331 56.7625 65.0474 55.8101 65.0474Z" fill="white"></path><path d="M63.1911 70.9045C61.953 70.9045 61.2387 70.1426 61.2387 68.8093C61.2387 67.4759 61.953 66.6664 63.1911 66.6664C63.4292 66.6664 63.6673 66.714 63.8578 66.7616C63.8578 66.7616 64.2387 66.8569 64.5721 67.1426L65.334 65.8093C64.9054 65.4759 64.4292 65.2855 64.2387 65.2378C63.7626 65.095 63.0483 65.0474 63.0483 65.0474C60.8102 65.0474 59.334 66.5712 59.334 68.8569C59.334 71.1426 60.7626 72.4759 62.953 72.4759C62.953 72.4759 64.4292 72.5235 65.3816 71.6188L64.4768 70.4283C64.0006 70.8093 63.6673 70.9045 63.1911 70.9045Z" fill="white"></path><path d="M39.1433 65.1427C36.5242 65.1427 35.2861 66.2856 35.2861 68.7618V72.3808H37.1909V68.7142C37.1909 67.4761 37.9052 66.7142 39.0004 66.7142C39.4766 66.7142 39.8099 66.8094 40.048 66.857L40.4766 65.238C39.7623 65.0951 39.1433 65.0951 39.1433 65.1427Z" fill="white"></path><path d="M47.5245 68.5238V72.3809H45.0007C43.2387 72.3809 42.4768 72.2381 41.5721 71.6666C40.7626 71.1428 40.334 70.0952 40.334 68.7619C40.334 66.9524 41.5245 65.0952 44.1911 65.0952C46.334 65.0952 47.4768 66.2857 47.5245 68.5238ZM45.6673 68.7619C45.6673 67.3809 45.1435 66.6666 44.0483 66.6666C42.953 66.6666 42.2387 67.4762 42.2387 68.7143C42.2387 70.1905 42.953 70.8095 44.5245 70.8095H45.6673V68.7619Z" fill="white"></path><path d="M34.2862 68.5238V72.3809H31.7624C30.0005 72.3809 29.2386 72.2381 28.3338 71.6666C27.5243 71.1428 27.0957 70.0952 27.0957 68.7619C27.0957 66.9524 28.2862 65.0952 30.9528 65.0952C33.1433 65.0952 34.2862 66.2857 34.2862 68.5238ZM32.3814 68.7619C32.3814 67.3333 31.9052 66.6666 30.81 66.6666C29.7147 66.6666 29.0005 67.4762 29.0005 68.7143C29.0005 70.1905 29.7147 70.8095 31.2862 70.8095H32.3814V68.7619Z" fill="white"></path><path d="M41.2382 31.0953H41.762L41.4763 30.4286C41.5239 30.4286 41.2382 31.0953 41.2382 31.0953ZM40.7144 31.7619L41.4763 29.9524H41.6667L42.4286 31.7619H42.0477L41.8572 31.2857H41.1905L41.0001 31.7619H40.7144ZM42.5239 31.6667L42.4763 31.3334C42.6667 31.4762 42.8572 31.5715 43.0477 31.5715C43.1429 31.5715 43.2382 31.5238 43.2858 31.5238C43.381 31.4286 43.381 31.2857 43.3334 31.1905C43.2858 31.0953 43.1429 31.0476 42.8572 30.9524C42.6191 30.8572 42.4763 30.6667 42.4763 30.4286C42.4763 30.2857 42.5239 30.1429 42.6191 30.0476C42.8572 29.8572 43.2382 29.9048 43.2858 29.9524C43.381 29.9524 43.4286 30 43.4763 30L43.5239 30.3334C43.4286 30.2857 43.381 30.2381 43.2858 30.1905C43.0477 30.0953 42.762 30.1429 42.762 30.381C42.762 30.4762 42.8096 30.5715 42.9524 30.6191C43.2858 30.7619 43.4286 30.8572 43.5239 31C43.6667 31.1905 43.6667 31.5238 43.4286 31.7143C43.3334 31.8095 43.1429 31.8572 42.9524 31.8572C42.8096 31.8095 42.6191 31.7143 42.5239 31.6667ZM44.2858 31.7619V30.1429C44.1429 30.1429 43.9525 30.1429 43.7144 30.1905V29.9048H45.0953V30.1905C44.8096 30.1429 44.6191 30.1429 44.5239 30.1429V31.7619H44.2858ZM46.0953 31.5715C46.381 31.5715 46.6191 31.3334 46.6191 30.8572C46.6191 30.8095 46.6191 30.4286 46.381 30.2381C46.2858 30.1905 46.1905 30.1429 46.0953 30.1429C45.7144 30.1429 45.5715 30.4762 45.5715 30.8572C45.5715 31.381 45.8096 31.5715 46.0953 31.5715ZM46.0953 31.8095C45.5715 31.8095 45.1905 31.4286 45.1905 30.8572C45.1905 30.2857 45.5715 29.9048 46.0953 29.9048C46.6191 29.9048 47.0001 30.2857 47.0001 30.8572C47.0001 31.4286 46.6667 31.8095 46.0953 31.8095ZM47.2858 31.7619V29.9524H47.4763L48.5715 31.1905V29.9524H48.8096V31.7619H48.6191L47.5239 30.5238V31.7619H47.2858ZM49.8096 31.7619L50.0001 29.9524H50.1905L50.8572 31.2381L51.4763 29.9524H51.6667L51.8572 31.7619H51.4763L51.381 30.6191L50.8572 31.6667H50.7144L50.1905 30.6191L50.0953 31.7143C50.0953 31.7619 49.8096 31.7619 49.8096 31.7619ZM52.5715 31.0953H53.0953L52.8096 30.4286L52.5715 31.0953ZM52.0001 31.7619L52.762 29.9524H52.9524L53.7144 31.7619H53.3334L53.1429 31.2857H52.4763L52.2858 31.7619H52.0001ZM54.2858 30.7619C54.3334 30.7619 54.381 30.7619 54.4286 30.7619C54.7144 30.7619 54.8096 30.5715 54.8096 30.4286C54.8096 30.1905 54.6667 30.0953 54.4286 30.0953C54.381 30.0953 54.3334 30.0953 54.2858 30.0953V30.7619ZM53.9048 31.7619V29.9524C54.0001 29.9524 54.1429 29.9524 54.3334 29.9524C54.4763 29.9524 54.6191 29.9524 54.762 30C54.9525 30.0476 55.1429 30.1905 55.1429 30.4762C55.1429 30.5715 55.0953 30.7143 55.0477 30.7619C55.0001 30.8095 54.9048 30.9048 54.762 30.9524L55.381 31.7619H54.9525L54.381 31H54.2858V31.7619H53.9048ZM55.8096 31.7619V30.1429C55.6667 30.1429 55.4763 30.1429 55.2382 30.1905V29.9048H56.6191V30.1905C56.3334 30.1429 56.1429 30.1429 56.0477 30.1429V31.7619H55.8096ZM56.9524 29.9524H57.2858V31.7619H56.9524V29.9524ZM57.6191 31.7619V29.9524H57.8096L58.9048 31.1905V29.9524H59.1429V31.7619H58.9525L57.8572 30.5238V31.7619H57.6191Z" fill="white"></path><path d="M72.1907 27.8094C72.0955 27.6189 71.8574 27.4761 71.5717 27.4761H53.6193C53.3336 27.4761 52.8574 27.4761 52.3812 27.9523C52.2383 28.0951 52.1431 28.2856 52.0479 28.3808C51.905 28.6189 51.8098 28.857 51.286 28.857H48.6669C48.1907 28.857 48.0955 28.6665 47.905 28.3808C47.8098 28.238 47.7622 28.0951 47.5717 27.9523C47.0955 27.4761 46.6193 27.4761 46.3336 27.4761H28.4764C28.1907 27.4761 27.9526 27.5713 27.8574 27.8094C27.7622 27.9999 27.7622 28.2856 27.905 28.5237L28.2383 29.0475C28.4288 29.3332 28.6193 29.3808 28.8098 29.4285C28.9526 29.4761 29.0479 29.4761 29.1907 29.6665L29.4764 30.1427C29.7145 30.5713 29.9526 30.6189 30.1431 30.6189C30.286 30.6666 30.4288 30.6665 30.6193 30.9999C30.8098 31.3332 31.0955 31.857 31.7622 32.0475C31.8098 32.0475 38.4288 33.9999 38.4764 33.9999C39.1907 34.238 39.3336 34.4761 39.5717 34.8094C39.7145 34.9999 40.0479 35.5237 40.905 35.7142L47.286 37.4285C47.9526 37.6189 48.3812 37.2856 48.6193 37.0951L49.7622 35.9999C49.905 35.857 50.0002 35.8094 50.1431 35.8094C50.286 35.8094 50.3336 35.857 50.5241 35.9999L51.6669 37.0951C51.8574 37.2856 52.286 37.6189 53.0002 37.4285L59.3812 35.7142C60.2383 35.4761 60.5717 34.9523 60.7145 34.8094C60.905 34.4761 61.0955 34.238 61.8098 33.9999C61.8098 33.9999 68.4288 32.0475 68.5241 32.0475C69.1907 31.857 69.4764 31.3332 69.6669 30.9999C69.8574 30.6665 70.0002 30.6189 70.1431 30.6189C70.3336 30.5713 70.6193 30.5237 70.8574 30.1427L71.1431 29.6665C71.2383 29.4761 71.3336 29.4285 71.5241 29.4285C71.7145 29.3808 71.905 29.3332 72.0955 29.0475L72.4288 28.5237C72.286 28.2856 72.286 27.9999 72.1907 27.8094ZM59.9526 29.2856V32.4285H40.0955V29.2856H59.9526ZM52.8098 37.0475C52.3336 37.0475 52.1431 36.6189 52.0002 36.2856C51.8574 35.9046 51.0955 33.4285 50.8574 32.7618H51.8574C52.3812 33.6666 53.3336 35.238 53.7622 35.9046C53.8574 35.9999 54.0479 36.3808 54.4288 36.6189C52.9526 37.0475 52.9526 37.0475 52.8098 37.0475ZM55.1431 36.4285C54.5717 36.4285 54.286 35.9999 54.1431 35.7142C53.7621 35.1427 52.9526 33.8094 52.3336 32.7618H53.4288C54.0955 33.4761 55.5717 35.0475 56.1431 35.6189C56.2383 35.7142 56.4288 35.9046 56.6669 36.0475C55.3336 36.3808 55.3336 36.4285 55.1431 36.4285ZM57.3336 35.8094C56.905 35.8094 56.6193 35.5237 56.3812 35.3332C55.8574 34.8094 54.6669 33.5713 53.9526 32.7618H55.1431C55.905 33.3332 57.6193 34.5713 58.3336 35.0475C58.4764 35.1427 58.7145 35.2856 59.0002 35.3808C57.4764 35.8094 57.5241 35.8094 57.3336 35.8094ZM60.1431 34.6666C59.9526 34.9523 59.8098 35.0951 59.4764 35.0951C59.1907 35.0951 58.8574 34.9523 58.5717 34.7618C58.0002 34.3808 56.7145 33.4285 55.8574 32.8094H57.286C59.0002 33.6666 59.7622 34.0475 60.2383 34.1904C60.3336 34.238 60.4288 34.238 60.4764 34.238C60.3336 34.3808 60.2383 34.4761 60.1431 34.6666ZM60.6669 33.857C60.286 33.857 59.7621 33.5713 58.1431 32.8094H59.6669L61.905 33.3332C62.0479 33.3808 62.1907 33.4285 62.3336 33.4285C61.0955 33.7618 60.905 33.857 60.6669 33.857ZM64.905 32.6665C63.6193 33.0475 63.4288 33.1427 63.0479 33.1427C62.8098 33.1427 62.4764 33.0951 61.9526 32.9523L60.2383 32.5237V31.9046C60.286 31.9046 64.905 32.6665 64.905 32.6665ZM66.2383 32.2856C65.8098 32.3808 65.4288 32.3332 64.8574 32.238L60.286 31.4761V30.9999L67.7622 31.857L66.2383 32.2856ZM69.0479 30.857C69.0002 30.9523 68.9526 31.0475 68.8574 31.1427C68.5717 31.4761 68.4288 31.4761 67.6193 31.3808L60.2383 30.5713V30.0951L68.7621 30.6189C68.8098 30.6189 69.0002 30.6189 69.1907 30.6666C69.1431 30.7142 69.0955 30.8094 69.0479 30.857ZM70.5241 29.4761C70.5241 29.4761 70.3812 29.7618 70.286 29.9046C70.0479 30.2856 69.905 30.2856 69.1907 30.238L60.286 29.7142V29.3332H70.6193C70.5717 29.3808 70.5241 29.4285 70.5241 29.4761ZM71.7621 28.2856L71.5241 28.6666C71.3812 28.9046 71.286 28.9046 70.7622 28.9046H52.2383C52.4288 28.6666 52.4764 28.4285 52.7145 28.238C53.0479 27.9046 53.3812 27.9046 53.6193 27.9046H71.5717C71.7145 27.9046 71.8098 27.9523 71.8098 27.9999C71.8574 28.0951 71.8098 28.1904 71.7621 28.2856ZM48.0955 36.9523C48.1907 36.857 48.2383 36.6665 48.3336 36.4285C48.4764 36.0475 49.286 33.4761 49.5241 32.7618H50.4288C50.6669 33.4761 51.4764 36.0475 51.6193 36.4285C51.7145 36.6665 51.7622 36.8094 51.8574 36.9523C51.8098 36.9523 51.8098 36.9046 51.7621 36.9046L50.6193 35.8094C50.4288 35.6189 50.2383 35.4761 49.9526 35.4761C49.6669 35.4761 49.4764 35.6189 49.286 35.8094L48.1431 36.9046C48.1907 36.9046 48.1431 36.9523 48.0955 36.9523ZM45.5717 36.6665C45.9526 36.4285 46.1907 36.0951 46.2383 35.9523C46.6669 35.2856 47.6193 33.6666 48.1431 32.8094H49.1431C48.905 33.4761 48.1431 35.9523 48.0002 36.3332C47.8574 36.6666 47.7145 37.0951 47.1907 37.0951C47.0479 37.0475 47.0479 37.0475 45.5717 36.6665ZM43.3336 36.0475C43.6193 35.9046 43.7622 35.7142 43.8574 35.6189C44.4288 35.0475 45.8574 33.5237 46.5717 32.7618H47.6669C47.0479 33.8094 46.2383 35.1427 45.8574 35.7142C45.6669 35.9999 45.3812 36.4285 44.8574 36.4285C44.6669 36.4285 44.6669 36.4285 43.3336 36.0475ZM41.0002 35.4285C41.286 35.3332 41.5241 35.1904 41.6669 35.0951C42.3336 34.6189 44.0955 33.3332 44.8574 32.8094H46.0479C45.286 33.6189 44.0955 34.857 43.6193 35.3808C43.4288 35.5713 43.0955 35.857 42.6669 35.857C42.4764 35.8094 42.5241 35.8094 41.0002 35.4285ZM39.5241 34.238C39.6193 34.238 39.6669 34.1904 39.7622 34.1904C40.286 34.0475 41.0002 33.6666 42.7145 32.8094H44.1431C43.286 33.4285 42.0002 34.3808 41.4288 34.7618C41.1431 34.9523 40.8574 35.0951 40.5241 35.0951C40.1907 35.0951 40.0479 34.9523 39.8574 34.6666C39.7622 34.4761 39.6669 34.3808 39.5241 34.238ZM37.7145 33.4285C37.8574 33.3808 38.0002 33.3808 38.1431 33.3332L40.3336 32.7618H41.8574C40.286 33.5713 39.7622 33.8094 39.3336 33.8094C39.0955 33.857 38.9526 33.8094 37.7145 33.4285ZM39.7145 31.9046V32.5237L38.0002 32.9523C37.4764 33.0951 37.1431 33.1427 36.905 33.1427C36.5241 33.1427 36.3336 33.0475 35.0479 32.6665C35.0955 32.6665 39.7145 31.9046 39.7145 31.9046ZM32.2383 31.857L39.7145 30.9999V31.4761L35.1431 32.238C34.5241 32.3332 34.1431 32.3808 33.7622 32.2856L32.2383 31.857ZM30.8098 30.6666C31.0002 30.6666 31.1431 30.6189 31.2383 30.6189L39.7622 30.1427V30.6189L32.3336 31.4285C31.5241 31.5237 31.3812 31.5237 31.0955 31.1904C31.0479 31.0951 30.9526 30.9999 30.905 30.9046C30.905 30.8094 30.8574 30.7142 30.8098 30.6666ZM29.4288 29.3332H39.7622V29.7142L30.8574 30.238C30.1431 30.2856 30.0002 30.2856 29.7622 29.9046C29.6669 29.7618 29.5241 29.4761 29.5241 29.4761C29.4764 29.4285 29.4288 29.3808 29.4288 29.3332ZM28.1907 28.0475C28.2383 27.9999 28.3336 27.9523 28.4288 27.9523H46.3812C46.6669 27.9523 46.9526 27.9523 47.286 28.2856C47.4764 28.5237 47.5717 28.7142 47.7622 28.9523H29.2383C28.6669 28.9523 28.6193 28.9523 28.4764 28.7142L28.2383 28.3332C28.1907 28.1904 28.1431 28.0951 28.1907 28.0475Z" fill="white"></path></g><defs><clipPath id="clip0_101_22059"><rect width="100" height="100" fill="white"></rect></clipPath></defs></svg>